<svg width="61" height="60" viewBox="0 0 61 60" fill="none" xmlns="http://www.w3.org/2000/svg">
<g clip-path="url(#clip0)">
<path d="M60.7092 30C60.7092 13.43 47.2792 0 30.7117 0C14.1442 0 0.714233 13.43 0.714233 30C0.714233 44.97 11.6842 57.38 26.0242 59.63V38.67H18.4092V29.9975H26.0242V23.39C26.0242 15.87 30.5042 11.7175 37.3542 11.7175C40.6367 11.7175 44.0692 12.3025 44.0692 12.3025V19.685H40.2892C36.5642 19.685 35.4017 21.9975 35.4017 24.37V30H43.7217L42.3917 38.6725H35.4017V59.6325C49.7417 57.3825 60.7117 44.9725 60.7117 30H60.7092Z" fill="white"/>
</g>
<defs>
<clipPath id="clip0">
<rect x="0.714233" width="60" height="60" fill="white"/>
</clipPath>
</defs>
</svg>
