<svg width="659" height="706" viewBox="0 0 659 706" fill="none" xmlns="http://www.w3.org/2000/svg">
<path d="M329.182 705.464C510.979 705.464 658.354 547.762 658.354 353.227C658.354 158.693 510.979 0.99115 329.182 0.99115C147.386 0.99115 0.0104675 158.693 0.0104675 353.227C0.0104675 547.762 147.386 705.464 329.182 705.464Z" fill="#93BBA1"/>
<path opacity="0.2" d="M329.182 610.326C273.596 610.325 219.73 589.701 176.762 551.967C133.794 514.232 104.382 461.723 93.5381 403.385C82.6941 345.047 91.0889 284.491 117.292 232.034C143.495 179.576 185.886 138.464 237.24 115.702C288.595 92.9402 345.737 89.9365 398.929 107.203C452.121 124.469 498.073 160.938 528.955 210.394C559.837 259.851 573.737 319.235 568.289 378.429C562.841 437.623 538.38 492.965 499.075 535.024C476.816 558.972 450.339 577.959 421.177 590.885C392.015 603.81 360.747 610.418 329.182 610.326V610.326ZM329.182 111.985C204.871 111.985 103.737 220.206 103.737 353.227C103.737 486.248 204.871 594.47 329.182 594.47C453.493 594.47 554.628 486.248 554.628 353.227C554.628 220.206 453.493 111.985 329.182 111.985Z" fill="black"/>
<path d="M329.182 602.398C457.784 602.398 562.037 490.84 562.037 353.227C562.037 215.614 457.784 104.057 329.182 104.057C200.58 104.057 96.3276 215.614 96.3276 353.227C96.3276 490.84 200.58 602.398 329.182 602.398Z" fill="#3F3D56"/>
<path d="M156.013 253.594C154.247 249.893 153.18 245.856 152.874 241.714C152.567 237.571 153.026 233.404 154.225 229.452C155.424 225.499 157.339 221.838 159.861 218.678C162.383 215.518 165.462 212.921 168.923 211.035C172.383 209.15 176.157 208.012 180.029 207.688C183.901 207.364 187.794 207.86 191.486 209.147C195.179 210.434 198.598 212.487 201.549 215.189C204.499 217.891 206.923 221.189 208.682 224.894L274.469 363.132C276.235 366.833 277.302 370.871 277.609 375.013C277.916 379.156 277.456 383.322 276.258 387.275C275.059 391.227 273.143 394.888 270.621 398.048C268.099 401.208 265.02 403.806 261.56 405.691C258.099 407.577 254.325 408.715 250.453 409.039C246.582 409.363 242.688 408.867 238.996 407.58C235.303 406.293 231.884 404.239 228.934 401.537C225.983 398.835 223.559 395.538 221.801 391.833L156.013 253.594Z" fill="#FF6584"/>
<path opacity="0.2" d="M163.351 269.013L160.315 262.633C175.468 250.034 193.263 240.768 212.983 233.933L216.019 240.313C194.676 245.069 176.517 253.871 163.351 269.013Z" fill="black"/>
<path opacity="0.2" d="M177.521 298.788L174.484 292.407C189.638 279.808 207.432 270.542 227.153 263.707L230.189 270.087C208.845 274.843 190.687 283.645 177.521 298.788Z" fill="black"/>
<path opacity="0.2" d="M191.69 328.562L188.654 322.182C203.808 309.583 221.602 300.317 241.322 293.481L244.359 299.862C223.015 304.618 204.857 313.419 191.69 328.562Z" fill="black"/>
<path opacity="0.2" d="M205.86 358.336L202.824 351.956C217.977 339.357 235.771 330.091 255.492 323.256L258.528 329.636C237.185 334.392 219.026 343.194 205.86 358.336Z" fill="black"/>
<path opacity="0.2" d="M220.03 388.111L216.993 381.73C232.147 369.131 249.941 359.865 269.661 353.03L272.698 359.41C251.354 364.166 233.196 372.968 220.03 388.111Z" fill="black"/>
<path d="M106.658 305.346C104.892 301.645 103.826 297.608 103.519 293.465C103.213 289.323 103.672 285.157 104.871 281.204C106.07 277.252 107.985 273.592 110.507 270.432C113.029 267.272 116.108 264.675 119.569 262.79C123.029 260.904 126.803 259.767 130.674 259.442C134.545 259.118 138.438 259.614 142.131 260.901C145.823 262.187 149.242 264.24 152.193 266.942C155.143 269.644 157.567 272.941 159.326 276.645L225.113 414.883C228.66 422.356 229.29 431.03 226.864 438.998C224.438 446.967 219.155 453.58 212.176 457.383C205.196 461.187 197.091 461.869 189.641 459.282C182.192 456.694 176.007 451.048 172.445 443.584L106.658 305.346Z" fill="#FF6584"/>
<path opacity="0.2" d="M113.995 320.765L110.959 314.384C126.113 301.785 143.907 292.519 163.627 285.684L166.664 292.064C145.32 296.82 127.162 305.622 113.995 320.765Z" fill="black"/>
<path opacity="0.2" d="M128.165 350.539L125.129 344.159C140.282 331.56 158.076 322.294 177.797 315.458L180.833 321.839C159.49 326.595 141.331 335.396 128.165 350.539Z" fill="black"/>
<path opacity="0.2" d="M142.335 380.313L139.298 373.933C154.452 361.334 172.246 352.068 191.966 345.233L195.003 351.613C173.659 356.369 155.501 365.171 142.335 380.313Z" fill="black"/>
<path opacity="0.2" d="M156.504 410.088L153.468 403.707C168.621 391.108 186.416 381.842 206.136 375.007L209.173 381.387C187.829 386.143 169.67 394.945 156.504 410.088Z" fill="black"/>
<path opacity="0.2" d="M170.674 439.862L167.638 433.482C182.791 420.883 200.585 411.617 220.306 404.781L223.342 411.162C201.998 415.918 183.84 424.719 170.674 439.862Z" fill="black"/>
<path d="M484.772 361.156L484.979 361.156C492.065 361.219 499.005 358.996 504.892 354.776C510.78 350.556 515.342 344.536 517.983 337.5C523.417 322.803 526.155 307.125 526.048 291.321C525.679 224.429 474.822 169.552 412.315 168.627C385.694 168.228 359.764 177.692 338.92 195.414C318.075 213.136 303.599 238.026 297.945 265.865C292.291 293.704 295.807 322.778 307.897 348.159C319.988 373.541 339.908 393.668 364.282 405.128C370.723 408.18 377.876 409.077 384.802 407.703C391.728 406.328 398.105 402.746 403.095 397.426C413.799 385.912 426.527 376.779 440.545 370.554C454.563 364.329 469.594 361.135 484.772 361.156Z" fill="#E6E6E6"/>
<path d="M425.499 323.78C446.543 323.78 463.603 305.525 463.603 283.007C463.603 260.488 446.543 242.233 425.499 242.233C404.455 242.233 387.396 260.488 387.396 283.007C387.396 305.525 404.455 323.78 425.499 323.78Z" fill="#F9A825"/>
<path d="M342.687 278.422C345.166 278.422 347.176 276.271 347.176 273.618C347.176 270.966 345.166 268.815 342.687 268.815C340.208 268.815 338.198 270.966 338.198 273.618C338.198 276.271 340.208 278.422 342.687 278.422Z" fill="#3F3D56"/>
<path d="M194.507 282.952C196.986 282.952 198.995 280.802 198.995 278.149C198.995 275.496 196.986 273.345 194.507 273.345C192.028 273.345 190.018 275.496 190.018 278.149C190.018 280.802 192.028 282.952 194.507 282.952Z" fill="#3F3D56"/>
<path d="M366.61 228.642C369.089 228.642 371.099 226.492 371.099 223.839C371.099 221.186 369.089 219.036 366.61 219.036C364.131 219.036 362.121 221.186 362.121 223.839C362.121 226.492 364.131 228.642 366.61 228.642Z" fill="#3F3D56"/>
<path d="M366.482 367.091C368.961 367.091 370.971 364.941 370.971 362.288C370.971 359.635 368.961 357.485 366.482 357.485C364.003 357.485 361.994 359.635 361.994 362.288C361.994 364.941 364.003 367.091 366.482 367.091Z" fill="#3F3D56"/>
<path d="M455.391 218.722C457.87 218.722 459.879 216.571 459.879 213.919C459.879 211.266 457.87 209.115 455.391 209.115C452.912 209.115 450.902 211.266 450.902 213.919C450.902 216.571 452.912 218.722 455.391 218.722Z" fill="#3F3D56"/>
<path d="M165.381 350.102C167.86 350.102 169.869 347.952 169.869 345.299C169.869 342.646 167.86 340.496 165.381 340.496C162.902 340.496 160.892 342.646 160.892 345.299C160.892 347.952 162.902 350.102 165.381 350.102Z" fill="#3F3D56"/>
<path d="M198.192 419.191C200.671 419.191 202.681 417.04 202.681 414.387C202.681 411.735 200.671 409.584 198.192 409.584C195.713 409.584 193.703 411.735 193.703 414.387C193.703 417.04 195.713 419.191 198.192 419.191Z" fill="#3F3D56"/>
<path d="M404.331 441.57C413.684 441.57 421.266 433.456 421.266 423.448C421.266 413.44 413.684 405.327 404.331 405.327C394.978 405.327 387.396 413.44 387.396 423.448C387.396 433.456 394.978 441.57 404.331 441.57Z" fill="#FF6584"/>
<path opacity="0.2" d="M417.032 424.581C417.032 428.185 415.694 431.642 413.312 434.191C410.93 436.74 407.699 438.172 404.331 438.172C400.962 438.172 397.732 436.74 395.35 434.191C392.968 431.642 391.63 428.185 391.63 424.581" fill="black"/>
<path opacity="0.2" d="M391.63 422.315C391.63 418.711 392.968 415.254 395.35 412.705C397.732 410.156 400.962 408.724 404.331 408.724C407.699 408.724 410.93 410.156 413.312 412.705C415.694 415.254 417.032 418.711 417.032 422.315" fill="black"/>
<path d="M397.98 418.918C398.565 418.918 399.039 418.157 399.039 417.219C399.039 416.281 398.565 415.52 397.98 415.52C397.396 415.52 396.922 416.281 396.922 417.219C396.922 418.157 397.396 418.918 397.98 418.918Z" fill="#FF6584"/>
<path d="M404.331 416.653C404.915 416.653 405.389 415.892 405.389 414.954C405.389 414.015 404.915 413.255 404.331 413.255C403.746 413.255 403.272 414.015 403.272 414.954C403.272 415.892 403.746 416.653 404.331 416.653Z" fill="#FF6584"/>
<path d="M404.331 431.376C404.915 431.376 405.389 430.616 405.389 429.677C405.389 428.739 404.915 427.978 404.331 427.978C403.746 427.978 403.272 428.739 403.272 429.677C403.272 430.616 403.746 431.376 404.331 431.376Z" fill="#FF6584"/>
<path d="M410.681 422.315C411.266 422.315 411.74 421.555 411.74 420.617C411.74 419.678 411.266 418.918 410.681 418.918C410.097 418.918 409.623 419.678 409.623 420.617C409.623 421.555 410.097 422.315 410.681 422.315Z" fill="#FF6584"/>
<path d="M409.623 434.774C410.208 434.774 410.681 434.013 410.681 433.075C410.681 432.137 410.208 431.376 409.623 431.376C409.039 431.376 408.565 432.137 408.565 433.075C408.565 434.013 409.039 434.774 409.623 434.774Z" fill="#FF6584"/>
<path d="M396.922 429.111C397.506 429.111 397.98 428.35 397.98 427.412C397.98 426.474 397.506 425.713 396.922 425.713C396.337 425.713 395.863 426.474 395.863 427.412C395.863 428.35 396.337 429.111 396.922 429.111Z" fill="#FF6584"/>
<path d="M438.201 392.868C447.554 392.868 455.136 384.755 455.136 374.747C455.136 364.738 447.554 356.625 438.201 356.625C428.848 356.625 421.266 364.738 421.266 374.747C421.266 384.755 428.848 392.868 438.201 392.868Z" fill="#FF6584"/>
<path opacity="0.2" d="M450.902 375.879C450.902 379.484 449.564 382.941 447.182 385.49C444.8 388.038 441.569 389.47 438.201 389.47C434.832 389.47 431.601 388.038 429.22 385.49C426.838 382.941 425.5 379.484 425.5 375.879" fill="black"/>
<path opacity="0.2" d="M425.5 373.614C425.5 370.009 426.838 366.553 429.22 364.004C431.601 361.455 434.832 360.023 438.201 360.023C441.569 360.023 444.8 361.455 447.182 364.004C449.564 366.553 450.902 370.009 450.902 373.614" fill="black"/>
<path d="M431.85 370.216C432.435 370.216 432.908 369.456 432.908 368.517C432.908 367.579 432.435 366.818 431.85 366.818C431.266 366.818 430.792 367.579 430.792 368.517C430.792 369.456 431.266 370.216 431.85 370.216Z" fill="#FF6584"/>
<path d="M438.201 367.951C438.785 367.951 439.259 367.19 439.259 366.252C439.259 365.314 438.785 364.553 438.201 364.553C437.616 364.553 437.142 365.314 437.142 366.252C437.142 367.19 437.616 367.951 438.201 367.951Z" fill="#FF6584"/>
<path d="M438.201 382.675C438.785 382.675 439.259 381.914 439.259 380.976C439.259 380.038 438.785 379.277 438.201 379.277C437.616 379.277 437.142 380.038 437.142 380.976C437.142 381.914 437.616 382.675 438.201 382.675Z" fill="#FF6584"/>
<path d="M444.551 373.614C445.136 373.614 445.61 372.853 445.61 371.915C445.61 370.977 445.136 370.216 444.551 370.216C443.967 370.216 443.493 370.977 443.493 371.915C443.493 372.853 443.967 373.614 444.551 373.614Z" fill="#FF6584"/>
<path d="M443.493 386.073C444.077 386.073 444.551 385.312 444.551 384.374C444.551 383.435 444.077 382.675 443.493 382.675C442.908 382.675 442.434 383.435 442.434 384.374C442.434 385.312 442.908 386.073 443.493 386.073Z" fill="#FF6584"/>
<path d="M430.792 380.41C431.376 380.41 431.85 379.649 431.85 378.711C431.85 377.772 431.376 377.012 430.792 377.012C430.207 377.012 429.733 377.772 429.733 378.711C429.733 379.649 430.207 380.41 430.792 380.41Z" fill="#FF6584"/>
<path d="M472.07 417.785C481.423 417.785 489.005 409.672 489.005 399.664C489.005 389.655 481.423 381.542 472.07 381.542C462.717 381.542 455.135 389.655 455.135 399.664C455.135 409.672 462.717 417.785 472.07 417.785Z" fill="#93BBA1"/>
<path opacity="0.2" d="M484.772 400.796C484.772 404.401 483.434 407.858 481.052 410.407C478.67 412.956 475.439 414.387 472.07 414.387C468.702 414.387 465.471 412.956 463.089 410.407C460.707 407.858 459.369 404.401 459.369 400.796" fill="black"/>
<path opacity="0.2" d="M459.369 398.531C459.369 394.926 460.707 391.47 463.089 388.921C465.471 386.372 468.702 384.94 472.07 384.94C475.439 384.94 478.67 386.372 481.052 388.921C483.434 391.47 484.772 394.926 484.772 398.531" fill="black"/>
<path d="M465.72 395.133C466.304 395.133 466.778 394.373 466.778 393.434C466.778 392.496 466.304 391.736 465.72 391.736C465.135 391.736 464.661 392.496 464.661 393.434C464.661 394.373 465.135 395.133 465.72 395.133Z" fill="#93BBA1"/>
<path d="M472.07 392.868C472.655 392.868 473.129 392.107 473.129 391.169C473.129 390.231 472.655 389.47 472.07 389.47C471.486 389.47 471.012 390.231 471.012 391.169C471.012 392.107 471.486 392.868 472.07 392.868Z" fill="#93BBA1"/>
<path d="M472.07 407.592C472.655 407.592 473.129 406.831 473.129 405.893C473.129 404.955 472.655 404.194 472.07 404.194C471.486 404.194 471.012 404.955 471.012 405.893C471.012 406.831 471.486 407.592 472.07 407.592Z" fill="#93BBA1"/>
<path d="M478.421 398.531C479.005 398.531 479.479 397.77 479.479 396.832C479.479 395.894 479.005 395.133 478.421 395.133C477.836 395.133 477.362 395.894 477.362 396.832C477.362 397.77 477.836 398.531 478.421 398.531Z" fill="#93BBA1"/>
<path d="M477.363 410.99C477.947 410.99 478.421 410.229 478.421 409.291C478.421 408.352 477.947 407.592 477.363 407.592C476.778 407.592 476.304 408.352 476.304 409.291C476.304 410.229 476.778 410.99 477.363 410.99Z" fill="#93BBA1"/>
<path d="M464.661 405.327C465.246 405.327 465.72 404.566 465.72 403.628C465.72 402.689 465.246 401.929 464.661 401.929C464.077 401.929 463.603 402.689 463.603 403.628C463.603 404.566 464.077 405.327 464.661 405.327Z" fill="#93BBA1"/>
<path d="M387.396 420.05C396.749 420.05 404.331 411.937 404.331 401.929C404.331 391.921 396.749 383.807 387.396 383.807C378.043 383.807 370.461 391.921 370.461 401.929C370.461 411.937 378.043 420.05 387.396 420.05Z" fill="#93BBA1"/>
<path opacity="0.2" d="M400.097 403.061C400.097 406.666 398.759 410.123 396.377 412.672C393.995 415.221 390.765 416.653 387.396 416.653C384.027 416.653 380.797 415.221 378.415 412.672C376.033 410.123 374.695 406.666 374.695 403.061" fill="black"/>
<path opacity="0.2" d="M374.695 400.796C374.695 397.192 376.033 393.735 378.415 391.186C380.797 388.637 384.027 387.205 387.396 387.205C390.765 387.205 393.995 388.637 396.377 391.186C398.759 393.735 400.097 397.192 400.097 400.796" fill="black"/>
<path d="M381.045 397.398C381.63 397.398 382.104 396.638 382.104 395.7C382.104 394.761 381.63 394.001 381.045 394.001C380.461 394.001 379.987 394.761 379.987 395.7C379.987 396.638 380.461 397.398 381.045 397.398Z" fill="#93BBA1"/>
<path d="M387.396 395.133C387.98 395.133 388.454 394.373 388.454 393.434C388.454 392.496 387.98 391.736 387.396 391.736C386.811 391.736 386.338 392.496 386.338 393.434C386.338 394.373 386.811 395.133 387.396 395.133Z" fill="#93BBA1"/>
<path d="M387.396 409.857C387.98 409.857 388.454 409.096 388.454 408.158C388.454 407.22 387.98 406.459 387.396 406.459C386.811 406.459 386.338 407.22 386.338 408.158C386.338 409.096 386.811 409.857 387.396 409.857Z" fill="#93BBA1"/>
<path d="M393.747 400.796C394.331 400.796 394.805 400.036 394.805 399.097C394.805 398.159 394.331 397.398 393.747 397.398C393.162 397.398 392.688 398.159 392.688 399.097C392.688 400.036 393.162 400.796 393.747 400.796Z" fill="#93BBA1"/>
<path d="M392.688 413.255C393.273 413.255 393.747 412.494 393.747 411.556C393.747 410.618 393.273 409.857 392.688 409.857C392.104 409.857 391.63 410.618 391.63 411.556C391.63 412.494 392.104 413.255 392.688 413.255Z" fill="#93BBA1"/>
<path d="M379.987 407.592C380.572 407.592 381.045 406.831 381.045 405.893C381.045 404.955 380.572 404.194 379.987 404.194C379.402 404.194 378.929 404.955 378.929 405.893C378.929 406.831 379.402 407.592 379.987 407.592Z" fill="#93BBA1"/>
<path d="M425.499 427.978C434.852 427.978 442.434 419.865 442.434 409.857C442.434 399.849 434.852 391.736 425.499 391.736C416.147 391.736 408.565 399.849 408.565 409.857C408.565 419.865 416.147 427.978 425.499 427.978Z" fill="#93BBA1"/>
<path opacity="0.2" d="M438.201 410.99C438.201 412.774 437.872 414.542 437.234 416.191C436.595 417.84 435.66 419.338 434.48 420.6C433.301 421.862 431.901 422.863 430.36 423.546C428.819 424.229 427.167 424.581 425.499 424.581C423.832 424.581 422.18 424.229 420.639 423.546C419.098 422.863 417.698 421.862 416.518 420.6C415.339 419.338 414.403 417.84 413.765 416.191C413.127 414.542 412.798 412.774 412.798 410.99" fill="black"/>
<path opacity="0.2" d="M412.798 408.724C412.798 406.94 413.127 405.172 413.765 403.523C414.403 401.874 415.339 400.376 416.518 399.114C417.698 397.852 419.098 396.851 420.639 396.168C422.18 395.485 423.832 395.133 425.499 395.133C427.167 395.133 428.819 395.485 430.36 396.168C431.901 396.851 433.301 397.852 434.48 399.114C435.66 400.376 436.595 401.874 437.234 403.523C437.872 405.172 438.201 406.94 438.201 408.724" fill="black"/>
<path d="M419.149 405.327C419.733 405.327 420.207 404.566 420.207 403.628C420.207 402.689 419.733 401.929 419.149 401.929C418.564 401.929 418.09 402.689 418.09 403.628C418.09 404.566 418.564 405.327 419.149 405.327Z" fill="#93BBA1"/>
<path d="M425.499 403.061C426.084 403.061 426.558 402.301 426.558 401.363C426.558 400.424 426.084 399.664 425.499 399.664C424.915 399.664 424.441 400.424 424.441 401.363C424.441 402.301 424.915 403.061 425.499 403.061Z" fill="#93BBA1"/>
<path d="M425.499 417.785C426.084 417.785 426.558 417.024 426.558 416.086C426.558 415.148 426.084 414.387 425.499 414.387C424.915 414.387 424.441 415.148 424.441 416.086C424.441 417.024 424.915 417.785 425.499 417.785Z" fill="#93BBA1"/>
<path d="M431.85 408.724C432.435 408.724 432.908 407.964 432.908 407.025C432.908 406.087 432.435 405.327 431.85 405.327C431.266 405.327 430.792 406.087 430.792 407.025C430.792 407.964 431.266 408.724 431.85 408.724Z" fill="#93BBA1"/>
<path d="M430.792 421.183C431.376 421.183 431.85 420.422 431.85 419.484C431.85 418.546 431.376 417.785 430.792 417.785C430.207 417.785 429.733 418.546 429.733 419.484C429.733 420.422 430.207 421.183 430.792 421.183Z" fill="#93BBA1"/>
<path d="M418.09 415.52C418.675 415.52 419.149 414.759 419.149 413.821C419.149 412.883 418.675 412.122 418.09 412.122C417.506 412.122 417.032 412.883 417.032 413.821C417.032 414.759 417.506 415.52 418.09 415.52Z" fill="#93BBA1"/>
<path d="M451.96 447.233C461.313 447.233 468.895 439.119 468.895 429.111C468.895 419.103 461.313 410.99 451.96 410.99C442.607 410.99 435.025 419.103 435.025 429.111C435.025 439.119 442.607 447.233 451.96 447.233Z" fill="#FF6584"/>
<path opacity="0.2" d="M464.661 430.244C464.661 433.848 463.323 437.305 460.941 439.854C458.559 442.403 455.329 443.835 451.96 443.835C448.592 443.835 445.361 442.403 442.979 439.854C440.597 437.305 439.259 433.848 439.259 430.244" fill="black"/>
<path opacity="0.2" d="M439.259 427.978C439.259 424.374 440.597 420.917 442.979 418.368C445.361 415.819 448.592 414.387 451.96 414.387C455.329 414.387 458.559 415.819 460.941 418.368C463.323 420.917 464.661 424.374 464.661 427.978" fill="black"/>
<path d="M445.61 424.581C446.194 424.581 446.668 423.82 446.668 422.882C446.668 421.943 446.194 421.183 445.61 421.183C445.025 421.183 444.551 421.943 444.551 422.882C444.551 423.82 445.025 424.581 445.61 424.581Z" fill="#FF6584"/>
<path d="M451.96 422.315C452.545 422.315 453.019 421.555 453.019 420.617C453.019 419.678 452.545 418.918 451.96 418.918C451.376 418.918 450.902 419.678 450.902 420.617C450.902 421.555 451.376 422.315 451.96 422.315Z" fill="#FF6584"/>
<path d="M451.96 437.039C452.545 437.039 453.019 436.279 453.019 435.34C453.019 434.402 452.545 433.641 451.96 433.641C451.376 433.641 450.902 434.402 450.902 435.34C450.902 436.279 451.376 437.039 451.96 437.039Z" fill="#FF6584"/>
<path d="M458.311 427.978C458.895 427.978 459.369 427.218 459.369 426.28C459.369 425.341 458.895 424.581 458.311 424.581C457.726 424.581 457.253 425.341 457.253 426.28C457.253 427.218 457.726 427.978 458.311 427.978Z" fill="#FF6584"/>
<path d="M457.252 440.437C457.837 440.437 458.311 439.676 458.311 438.738C458.311 437.8 457.837 437.039 457.252 437.039C456.668 437.039 456.194 437.8 456.194 438.738C456.194 439.676 456.668 440.437 457.252 440.437Z" fill="#FF6584"/>
<path d="M444.551 434.774C445.136 434.774 445.61 434.013 445.61 433.075C445.61 432.137 445.136 431.376 444.551 431.376C443.967 431.376 443.493 432.137 443.493 433.075C443.493 434.013 443.967 434.774 444.551 434.774Z" fill="#FF6584"/>
<path d="M234.179 364.826C236.658 364.826 238.667 362.676 238.667 360.023C238.667 357.37 236.658 355.22 234.179 355.22C231.699 355.22 229.69 357.37 229.69 360.023C229.69 362.676 231.699 364.826 234.179 364.826Z" fill="#3F3D56"/>
<path d="M356.192 534.371L248.388 502.379L252.517 485.965L360.322 517.957L356.192 534.371Z" fill="#F9A825"/>
<path d="M340.388 528.885C303.471 536.447 265.549 536.447 228.631 528.885V511.87C265.631 518.432 303.388 518.432 340.388 511.87V528.885Z" fill="#F9A825"/>
<path d="M351.877 477.839C314.96 485.401 277.038 485.401 240.12 477.839V460.824C277.12 467.386 314.877 467.386 351.877 460.824V477.839Z" fill="#F9A825"/>
<path d="M390.522 498.257C353.605 505.82 315.682 505.82 278.765 498.257V481.242C315.765 487.804 353.522 487.804 390.522 481.242V498.257Z" fill="#F9A825"/>
<path d="M399.922 517.541C363.005 525.104 325.082 525.104 288.165 517.541V500.526C325.165 507.088 362.922 507.088 399.922 500.526V517.541Z" fill="#F9A825"/>
<path d="M432.695 542.74L322.437 562.558L319.88 545.77L430.137 525.952L432.695 542.74Z" fill="#F9A825"/>
<path d="M416.225 544.921C385.656 568.5 351.204 585.695 314.677 595.602L308.135 580.141C344.343 569.292 378.646 552.172 409.683 529.46L416.225 544.921Z" fill="#F9A825"/>
<path d="M407.039 493.328C376.471 516.907 342.019 534.101 305.491 544.009L298.95 528.548C335.157 517.699 369.46 500.579 400.498 477.867L407.039 493.328Z" fill="#F9A825"/>
<path d="M450.004 494.356C419.436 517.935 384.984 535.129 348.456 545.037L341.914 529.576C378.122 518.727 412.425 501.607 443.462 478.895L450.004 494.356Z" fill="#F9A825"/>
<path d="M465.96 507.616C435.391 531.194 400.939 548.389 364.411 558.297L357.87 542.835C394.077 531.986 428.381 514.866 459.418 492.155L465.96 507.616Z" fill="#F9A825"/>
<path d="M332.358 474.415H327.065V480.078H332.358V474.415Z" fill="#00BF71"/>
<path d="M348.234 572.95H342.942V578.613H348.234V572.95Z" fill="#00BF71"/>
<path d="M263.56 474.415H258.267V480.078H263.56V474.415Z" fill="#00BF71"/>
<path d="M386.338 544.635H381.045V550.298H386.338V544.635Z" fill="#00BF71"/>
<path d="M389.513 511.79H384.221V517.453H389.513V511.79Z" fill="#00BF71"/>
<path d="M302.213 496.285L296.082 491.834L293.705 495.583L299.836 500.034L302.213 496.285Z" fill="#00BF71"/>
<path d="M364.66 508.744L358.529 504.292L356.152 508.041L362.283 512.493L364.66 508.744Z" fill="#00BF71"/>
<path d="M288.453 530.263L282.322 525.812L279.945 529.561L286.076 534.012L288.453 530.263Z" fill="#00BF71"/>
<path d="M327.266 529.933L331.426 523.373L327.923 520.829L323.763 527.39L327.266 529.933Z" fill="#00BF71"/>
<path d="M355.844 537.862L360.004 531.301L356.5 528.757L352.341 535.318L355.844 537.862Z" fill="#00BF71"/>
<path d="M432.058 510.678L436.218 504.117L432.715 501.574L428.555 508.134L432.058 510.678Z" fill="#00BF71"/>
</svg>
