<svg width="1256" height="861" viewBox="0 0 1256 861" fill="none" xmlns="http://www.w3.org/2000/svg">
<path opacity="0.5" d="M618.714 0H1255.92V861H618.714V0Z" fill="#F9A825"/>
<g clip-path="url(#clip0)">
<path d="M605.182 790.464C786.979 790.464 934.354 632.762 934.354 438.227C934.354 243.693 786.979 85.9911 605.182 85.9911C423.386 85.9911 276.01 243.693 276.01 438.227C276.01 632.762 423.386 790.464 605.182 790.464Z" fill="#93BBA1"/>
<path opacity="0.2" d="M605.182 695.326C549.596 695.325 495.73 674.701 452.762 636.967C409.794 599.232 380.382 546.723 369.538 488.385C358.694 430.047 367.089 369.491 393.292 317.034C419.495 264.576 461.886 223.464 513.24 200.702C564.595 177.94 621.737 174.936 674.929 192.203C728.121 209.469 774.073 245.938 804.955 295.394C835.837 344.851 849.737 404.235 844.289 463.429C838.841 522.623 814.38 577.965 775.075 620.024C752.816 643.972 726.339 662.959 697.177 675.885C668.015 688.81 636.747 695.418 605.182 695.326V695.326ZM605.182 196.985C480.871 196.985 379.737 305.206 379.737 438.227C379.737 571.248 480.871 679.47 605.182 679.47C729.493 679.47 830.628 571.248 830.628 438.227C830.628 305.206 729.493 196.985 605.182 196.985Z" fill="black"/>
<path d="M605.182 687.398C733.784 687.398 838.037 575.84 838.037 438.227C838.037 300.614 733.784 189.057 605.182 189.057C476.58 189.057 372.328 300.614 372.328 438.227C372.328 575.84 476.58 687.398 605.182 687.398Z" fill="#3F3D56"/>
<path d="M432.013 338.594C430.247 334.893 429.18 330.856 428.874 326.714C428.567 322.571 429.026 318.404 430.225 314.452C431.424 310.499 433.339 306.838 435.861 303.678C438.383 300.518 441.462 297.921 444.923 296.035C448.383 294.15 452.157 293.012 456.029 292.688C459.901 292.364 463.794 292.86 467.486 294.147C471.179 295.434 474.598 297.487 477.549 300.189C480.499 302.891 482.923 306.189 484.682 309.894L550.469 448.132C552.235 451.833 553.302 455.871 553.609 460.013C553.916 464.156 553.456 468.322 552.258 472.275C551.059 476.227 549.143 479.888 546.621 483.048C544.099 486.208 541.02 488.806 537.56 490.691C534.099 492.577 530.325 493.715 526.453 494.039C522.582 494.363 518.688 493.867 514.996 492.58C511.303 491.293 507.884 489.239 504.934 486.537C501.983 483.835 499.559 480.538 497.801 476.833L432.013 338.594Z" fill="#FF6584"/>
<path opacity="0.2" d="M439.351 354.013L436.315 347.633C451.468 335.034 469.263 325.768 488.983 318.933L492.019 325.313C470.676 330.069 452.517 338.871 439.351 354.013Z" fill="black"/>
<path opacity="0.2" d="M453.521 383.788L450.484 377.407C465.638 364.808 483.432 355.542 503.153 348.707L506.189 355.087C484.845 359.843 466.687 368.645 453.521 383.788Z" fill="black"/>
<path opacity="0.2" d="M467.69 413.562L464.654 407.182C479.808 394.583 497.602 385.317 517.322 378.481L520.359 384.862C499.015 389.618 480.857 398.419 467.69 413.562Z" fill="black"/>
<path opacity="0.2" d="M481.86 443.336L478.824 436.956C493.977 424.357 511.771 415.091 531.492 408.256L534.528 414.636C513.185 419.392 495.026 428.194 481.86 443.336Z" fill="black"/>
<path opacity="0.2" d="M496.03 473.111L492.993 466.73C508.147 454.131 525.941 444.865 545.661 438.03L548.698 444.41C527.354 449.166 509.196 457.968 496.03 473.111Z" fill="black"/>
<path d="M382.658 390.346C380.892 386.645 379.826 382.608 379.519 378.465C379.213 374.323 379.672 370.157 380.871 366.204C382.07 362.252 383.985 358.592 386.507 355.432C389.029 352.272 392.108 349.675 395.569 347.79C399.029 345.904 402.803 344.767 406.674 344.442C410.545 344.118 414.438 344.614 418.131 345.901C421.823 347.187 425.242 349.24 428.193 351.942C431.143 354.644 433.567 357.941 435.326 361.645L501.113 499.883C504.66 507.356 505.29 516.03 502.864 523.998C500.438 531.967 495.155 538.58 488.176 542.383C481.196 546.187 473.091 546.869 465.641 544.282C458.192 541.694 452.007 536.048 448.445 528.584L382.658 390.346Z" fill="#FF6584"/>
<path opacity="0.2" d="M389.995 405.765L386.959 399.384C402.113 386.785 419.907 377.519 439.627 370.684L442.664 377.064C421.32 381.82 403.162 390.622 389.995 405.765Z" fill="black"/>
<path opacity="0.2" d="M404.165 435.539L401.129 429.159C416.282 416.56 434.076 407.294 453.797 400.458L456.833 406.839C435.49 411.595 417.331 420.396 404.165 435.539Z" fill="black"/>
<path opacity="0.2" d="M418.335 465.313L415.298 458.933C430.452 446.334 448.246 437.068 467.966 430.233L471.003 436.613C449.659 441.369 431.501 450.171 418.335 465.313Z" fill="black"/>
<path opacity="0.2" d="M432.504 495.088L429.468 488.707C444.621 476.108 462.416 466.842 482.136 460.007L485.173 466.387C463.829 471.143 445.67 479.945 432.504 495.088Z" fill="black"/>
<path opacity="0.2" d="M446.674 524.862L443.638 518.482C458.791 505.883 476.585 496.617 496.306 489.781L499.342 496.162C477.998 500.918 459.84 509.719 446.674 524.862Z" fill="black"/>
<path d="M760.772 446.156L760.979 446.156C768.065 446.219 775.005 443.996 780.892 439.776C786.78 435.556 791.342 429.536 793.983 422.5C799.417 407.803 802.155 392.125 802.048 376.321C801.679 309.429 750.822 254.552 688.315 253.627C661.694 253.228 635.764 262.692 614.92 280.414C594.075 298.136 579.599 323.026 573.945 350.865C568.291 378.704 571.807 407.778 583.897 433.159C595.988 458.541 615.908 478.668 640.282 490.128C646.723 493.18 653.876 494.077 660.802 492.703C667.728 491.328 674.105 487.746 679.095 482.426C689.799 470.912 702.527 461.779 716.545 455.554C730.563 449.329 745.594 446.135 760.772 446.156Z" fill="#E6E6E6"/>
<path d="M701.499 408.78C722.543 408.78 739.603 390.525 739.603 368.007C739.603 345.488 722.543 327.233 701.499 327.233C680.455 327.233 663.396 345.488 663.396 368.007C663.396 390.525 680.455 408.78 701.499 408.78Z" fill="#F9A825"/>
<path d="M618.687 363.422C621.166 363.422 623.176 361.271 623.176 358.618C623.176 355.966 621.166 353.815 618.687 353.815C616.208 353.815 614.198 355.966 614.198 358.618C614.198 361.271 616.208 363.422 618.687 363.422Z" fill="#3F3D56"/>
<path d="M470.507 367.952C472.986 367.952 474.995 365.802 474.995 363.149C474.995 360.496 472.986 358.345 470.507 358.345C468.028 358.345 466.018 360.496 466.018 363.149C466.018 365.802 468.028 367.952 470.507 367.952Z" fill="#3F3D56"/>
<path d="M642.61 313.642C645.089 313.642 647.099 311.492 647.099 308.839C647.099 306.186 645.089 304.036 642.61 304.036C640.131 304.036 638.121 306.186 638.121 308.839C638.121 311.492 640.131 313.642 642.61 313.642Z" fill="#3F3D56"/>
<path d="M642.482 452.091C644.961 452.091 646.971 449.941 646.971 447.288C646.971 444.635 644.961 442.485 642.482 442.485C640.003 442.485 637.994 444.635 637.994 447.288C637.994 449.941 640.003 452.091 642.482 452.091Z" fill="#3F3D56"/>
<path d="M731.391 303.722C733.87 303.722 735.879 301.571 735.879 298.919C735.879 296.266 733.87 294.115 731.391 294.115C728.912 294.115 726.902 296.266 726.902 298.919C726.902 301.571 728.912 303.722 731.391 303.722Z" fill="#3F3D56"/>
<path d="M441.381 435.102C443.86 435.102 445.869 432.952 445.869 430.299C445.869 427.646 443.86 425.496 441.381 425.496C438.902 425.496 436.892 427.646 436.892 430.299C436.892 432.952 438.902 435.102 441.381 435.102Z" fill="#3F3D56"/>
<path d="M474.192 504.191C476.671 504.191 478.681 502.04 478.681 499.387C478.681 496.735 476.671 494.584 474.192 494.584C471.713 494.584 469.703 496.735 469.703 499.387C469.703 502.04 471.713 504.191 474.192 504.191Z" fill="#3F3D56"/>
<path d="M680.331 526.57C689.684 526.57 697.266 518.456 697.266 508.448C697.266 498.44 689.684 490.327 680.331 490.327C670.978 490.327 663.396 498.44 663.396 508.448C663.396 518.456 670.978 526.57 680.331 526.57Z" fill="#FF6584"/>
<path opacity="0.2" d="M693.032 509.581C693.032 513.185 691.694 516.642 689.312 519.191C686.93 521.74 683.699 523.172 680.331 523.172C676.962 523.172 673.732 521.74 671.35 519.191C668.968 516.642 667.63 513.185 667.63 509.581" fill="black"/>
<path opacity="0.2" d="M667.63 507.315C667.63 503.711 668.968 500.254 671.35 497.705C673.732 495.156 676.962 493.724 680.331 493.724C683.699 493.724 686.93 495.156 689.312 497.705C691.694 500.254 693.032 503.711 693.032 507.315" fill="black"/>
<path d="M673.98 503.918C674.565 503.918 675.039 503.157 675.039 502.219C675.039 501.281 674.565 500.52 673.98 500.52C673.396 500.52 672.922 501.281 672.922 502.219C672.922 503.157 673.396 503.918 673.98 503.918Z" fill="#FF6584"/>
<path d="M680.331 501.653C680.915 501.653 681.389 500.892 681.389 499.954C681.389 499.015 680.915 498.255 680.331 498.255C679.746 498.255 679.272 499.015 679.272 499.954C679.272 500.892 679.746 501.653 680.331 501.653Z" fill="#FF6584"/>
<path d="M680.331 516.376C680.915 516.376 681.389 515.616 681.389 514.677C681.389 513.739 680.915 512.978 680.331 512.978C679.746 512.978 679.272 513.739 679.272 514.677C679.272 515.616 679.746 516.376 680.331 516.376Z" fill="#FF6584"/>
<path d="M686.681 507.315C687.266 507.315 687.74 506.555 687.74 505.617C687.74 504.678 687.266 503.918 686.681 503.918C686.097 503.918 685.623 504.678 685.623 505.617C685.623 506.555 686.097 507.315 686.681 507.315Z" fill="#FF6584"/>
<path d="M685.623 519.774C686.208 519.774 686.681 519.013 686.681 518.075C686.681 517.137 686.208 516.376 685.623 516.376C685.039 516.376 684.565 517.137 684.565 518.075C684.565 519.013 685.039 519.774 685.623 519.774Z" fill="#FF6584"/>
<path d="M672.922 514.111C673.506 514.111 673.98 513.35 673.98 512.412C673.98 511.474 673.506 510.713 672.922 510.713C672.337 510.713 671.863 511.474 671.863 512.412C671.863 513.35 672.337 514.111 672.922 514.111Z" fill="#FF6584"/>
<path d="M714.201 477.868C723.554 477.868 731.136 469.755 731.136 459.747C731.136 449.738 723.554 441.625 714.201 441.625C704.848 441.625 697.266 449.738 697.266 459.747C697.266 469.755 704.848 477.868 714.201 477.868Z" fill="#FF6584"/>
<path opacity="0.2" d="M726.902 460.879C726.902 464.484 725.564 467.941 723.182 470.49C720.8 473.038 717.569 474.47 714.201 474.47C710.832 474.47 707.601 473.038 705.22 470.49C702.838 467.941 701.5 464.484 701.5 460.879" fill="black"/>
<path opacity="0.2" d="M701.5 458.614C701.5 455.009 702.838 451.553 705.22 449.004C707.601 446.455 710.832 445.023 714.201 445.023C717.569 445.023 720.8 446.455 723.182 449.004C725.564 451.553 726.902 455.009 726.902 458.614" fill="black"/>
<path d="M707.85 455.216C708.435 455.216 708.908 454.456 708.908 453.517C708.908 452.579 708.435 451.818 707.85 451.818C707.266 451.818 706.792 452.579 706.792 453.517C706.792 454.456 707.266 455.216 707.85 455.216Z" fill="#FF6584"/>
<path d="M714.201 452.951C714.785 452.951 715.259 452.19 715.259 451.252C715.259 450.314 714.785 449.553 714.201 449.553C713.616 449.553 713.142 450.314 713.142 451.252C713.142 452.19 713.616 452.951 714.201 452.951Z" fill="#FF6584"/>
<path d="M714.201 467.675C714.785 467.675 715.259 466.914 715.259 465.976C715.259 465.038 714.785 464.277 714.201 464.277C713.616 464.277 713.142 465.038 713.142 465.976C713.142 466.914 713.616 467.675 714.201 467.675Z" fill="#FF6584"/>
<path d="M720.551 458.614C721.136 458.614 721.61 457.853 721.61 456.915C721.61 455.977 721.136 455.216 720.551 455.216C719.967 455.216 719.493 455.977 719.493 456.915C719.493 457.853 719.967 458.614 720.551 458.614Z" fill="#FF6584"/>
<path d="M719.493 471.073C720.077 471.073 720.551 470.312 720.551 469.374C720.551 468.435 720.077 467.675 719.493 467.675C718.908 467.675 718.434 468.435 718.434 469.374C718.434 470.312 718.908 471.073 719.493 471.073Z" fill="#FF6584"/>
<path d="M706.792 465.41C707.376 465.41 707.85 464.649 707.85 463.711C707.85 462.772 707.376 462.012 706.792 462.012C706.207 462.012 705.733 462.772 705.733 463.711C705.733 464.649 706.207 465.41 706.792 465.41Z" fill="#FF6584"/>
<path d="M748.07 502.785C757.423 502.785 765.005 494.672 765.005 484.664C765.005 474.655 757.423 466.542 748.07 466.542C738.717 466.542 731.135 474.655 731.135 484.664C731.135 494.672 738.717 502.785 748.07 502.785Z" fill="#93BBA1"/>
<path opacity="0.2" d="M760.772 485.796C760.772 489.401 759.434 492.858 757.052 495.407C754.67 497.956 751.439 499.387 748.07 499.387C744.702 499.387 741.471 497.956 739.089 495.407C736.707 492.858 735.369 489.401 735.369 485.796" fill="black"/>
<path opacity="0.2" d="M735.369 483.531C735.369 479.926 736.707 476.47 739.089 473.921C741.471 471.372 744.702 469.94 748.07 469.94C751.439 469.94 754.67 471.372 757.052 473.921C759.434 476.47 760.772 479.926 760.772 483.531" fill="black"/>
<path d="M741.72 480.133C742.304 480.133 742.778 479.373 742.778 478.434C742.778 477.496 742.304 476.736 741.72 476.736C741.135 476.736 740.661 477.496 740.661 478.434C740.661 479.373 741.135 480.133 741.72 480.133Z" fill="#93BBA1"/>
<path d="M748.07 477.868C748.655 477.868 749.129 477.107 749.129 476.169C749.129 475.231 748.655 474.47 748.07 474.47C747.486 474.47 747.012 475.231 747.012 476.169C747.012 477.107 747.486 477.868 748.07 477.868Z" fill="#93BBA1"/>
<path d="M748.07 492.592C748.655 492.592 749.129 491.831 749.129 490.893C749.129 489.955 748.655 489.194 748.07 489.194C747.486 489.194 747.012 489.955 747.012 490.893C747.012 491.831 747.486 492.592 748.07 492.592Z" fill="#93BBA1"/>
<path d="M754.421 483.531C755.005 483.531 755.479 482.77 755.479 481.832C755.479 480.894 755.005 480.133 754.421 480.133C753.836 480.133 753.362 480.894 753.362 481.832C753.362 482.77 753.836 483.531 754.421 483.531Z" fill="#93BBA1"/>
<path d="M753.363 495.99C753.947 495.99 754.421 495.229 754.421 494.291C754.421 493.352 753.947 492.592 753.363 492.592C752.778 492.592 752.304 493.352 752.304 494.291C752.304 495.229 752.778 495.99 753.363 495.99Z" fill="#93BBA1"/>
<path d="M740.661 490.327C741.246 490.327 741.72 489.566 741.72 488.628C741.72 487.689 741.246 486.929 740.661 486.929C740.077 486.929 739.603 487.689 739.603 488.628C739.603 489.566 740.077 490.327 740.661 490.327Z" fill="#93BBA1"/>
<path d="M663.396 505.05C672.749 505.05 680.331 496.937 680.331 486.929C680.331 476.921 672.749 468.807 663.396 468.807C654.043 468.807 646.461 476.921 646.461 486.929C646.461 496.937 654.043 505.05 663.396 505.05Z" fill="#93BBA1"/>
<path opacity="0.2" d="M676.097 488.061C676.097 491.666 674.759 495.123 672.377 497.672C669.995 500.221 666.765 501.653 663.396 501.653C660.027 501.653 656.797 500.221 654.415 497.672C652.033 495.123 650.695 491.666 650.695 488.061" fill="black"/>
<path opacity="0.2" d="M650.695 485.796C650.695 482.192 652.033 478.735 654.415 476.186C656.797 473.637 660.027 472.205 663.396 472.205C666.765 472.205 669.995 473.637 672.377 476.186C674.759 478.735 676.097 482.192 676.097 485.796" fill="black"/>
<path d="M657.045 482.398C657.63 482.398 658.104 481.638 658.104 480.7C658.104 479.761 657.63 479.001 657.045 479.001C656.461 479.001 655.987 479.761 655.987 480.7C655.987 481.638 656.461 482.398 657.045 482.398Z" fill="#93BBA1"/>
<path d="M663.396 480.133C663.98 480.133 664.454 479.373 664.454 478.434C664.454 477.496 663.98 476.736 663.396 476.736C662.811 476.736 662.338 477.496 662.338 478.434C662.338 479.373 662.811 480.133 663.396 480.133Z" fill="#93BBA1"/>
<path d="M663.396 494.857C663.98 494.857 664.454 494.096 664.454 493.158C664.454 492.22 663.98 491.459 663.396 491.459C662.811 491.459 662.338 492.22 662.338 493.158C662.338 494.096 662.811 494.857 663.396 494.857Z" fill="#93BBA1"/>
<path d="M669.747 485.796C670.331 485.796 670.805 485.036 670.805 484.097C670.805 483.159 670.331 482.398 669.747 482.398C669.162 482.398 668.688 483.159 668.688 484.097C668.688 485.036 669.162 485.796 669.747 485.796Z" fill="#93BBA1"/>
<path d="M668.688 498.255C669.273 498.255 669.747 497.494 669.747 496.556C669.747 495.618 669.273 494.857 668.688 494.857C668.104 494.857 667.63 495.618 667.63 496.556C667.63 497.494 668.104 498.255 668.688 498.255Z" fill="#93BBA1"/>
<path d="M655.987 492.592C656.572 492.592 657.045 491.831 657.045 490.893C657.045 489.955 656.572 489.194 655.987 489.194C655.402 489.194 654.929 489.955 654.929 490.893C654.929 491.831 655.402 492.592 655.987 492.592Z" fill="#93BBA1"/>
<path d="M701.499 512.978C710.852 512.978 718.434 504.865 718.434 494.857C718.434 484.849 710.852 476.736 701.499 476.736C692.147 476.736 684.565 484.849 684.565 494.857C684.565 504.865 692.147 512.978 701.499 512.978Z" fill="#93BBA1"/>
<path opacity="0.2" d="M714.201 495.99C714.201 497.774 713.872 499.542 713.234 501.191C712.595 502.84 711.66 504.338 710.48 505.6C709.301 506.862 707.901 507.863 706.36 508.546C704.819 509.229 703.167 509.581 701.499 509.581C699.832 509.581 698.18 509.229 696.639 508.546C695.098 507.863 693.698 506.862 692.518 505.6C691.339 504.338 690.403 502.84 689.765 501.191C689.127 499.542 688.798 497.774 688.798 495.99" fill="black"/>
<path opacity="0.2" d="M688.798 493.724C688.798 491.94 689.127 490.172 689.765 488.523C690.403 486.874 691.339 485.376 692.518 484.114C693.698 482.852 695.098 481.851 696.639 481.168C698.18 480.485 699.832 480.133 701.499 480.133C703.167 480.133 704.819 480.485 706.36 481.168C707.901 481.851 709.301 482.852 710.48 484.114C711.66 485.376 712.595 486.874 713.234 488.523C713.872 490.172 714.201 491.94 714.201 493.724" fill="black"/>
<path d="M695.149 490.327C695.733 490.327 696.207 489.566 696.207 488.628C696.207 487.689 695.733 486.929 695.149 486.929C694.564 486.929 694.09 487.689 694.09 488.628C694.09 489.566 694.564 490.327 695.149 490.327Z" fill="#93BBA1"/>
<path d="M701.499 488.061C702.084 488.061 702.558 487.301 702.558 486.363C702.558 485.424 702.084 484.664 701.499 484.664C700.915 484.664 700.441 485.424 700.441 486.363C700.441 487.301 700.915 488.061 701.499 488.061Z" fill="#93BBA1"/>
<path d="M701.499 502.785C702.084 502.785 702.558 502.024 702.558 501.086C702.558 500.148 702.084 499.387 701.499 499.387C700.915 499.387 700.441 500.148 700.441 501.086C700.441 502.024 700.915 502.785 701.499 502.785Z" fill="#93BBA1"/>
<path d="M707.85 493.724C708.435 493.724 708.908 492.964 708.908 492.025C708.908 491.087 708.435 490.327 707.85 490.327C707.266 490.327 706.792 491.087 706.792 492.025C706.792 492.964 707.266 493.724 707.85 493.724Z" fill="#93BBA1"/>
<path d="M706.792 506.183C707.376 506.183 707.85 505.422 707.85 504.484C707.85 503.546 707.376 502.785 706.792 502.785C706.207 502.785 705.733 503.546 705.733 504.484C705.733 505.422 706.207 506.183 706.792 506.183Z" fill="#93BBA1"/>
<path d="M694.09 500.52C694.675 500.52 695.149 499.759 695.149 498.821C695.149 497.883 694.675 497.122 694.09 497.122C693.506 497.122 693.032 497.883 693.032 498.821C693.032 499.759 693.506 500.52 694.09 500.52Z" fill="#93BBA1"/>
<path d="M727.96 532.233C737.313 532.233 744.895 524.119 744.895 514.111C744.895 504.103 737.313 495.99 727.96 495.99C718.607 495.99 711.025 504.103 711.025 514.111C711.025 524.119 718.607 532.233 727.96 532.233Z" fill="#FF6584"/>
<path opacity="0.2" d="M740.661 515.244C740.661 518.848 739.323 522.305 736.941 524.854C734.559 527.403 731.329 528.835 727.96 528.835C724.592 528.835 721.361 527.403 718.979 524.854C716.597 522.305 715.259 518.848 715.259 515.244" fill="black"/>
<path opacity="0.2" d="M715.259 512.978C715.259 509.374 716.597 505.917 718.979 503.368C721.361 500.819 724.592 499.387 727.96 499.387C731.329 499.387 734.559 500.819 736.941 503.368C739.323 505.917 740.661 509.374 740.661 512.978" fill="black"/>
<path d="M721.61 509.581C722.194 509.581 722.668 508.82 722.668 507.882C722.668 506.943 722.194 506.183 721.61 506.183C721.025 506.183 720.551 506.943 720.551 507.882C720.551 508.82 721.025 509.581 721.61 509.581Z" fill="#FF6584"/>
<path d="M727.96 507.315C728.545 507.315 729.019 506.555 729.019 505.617C729.019 504.678 728.545 503.918 727.96 503.918C727.376 503.918 726.902 504.678 726.902 505.617C726.902 506.555 727.376 507.315 727.96 507.315Z" fill="#FF6584"/>
<path d="M727.96 522.039C728.545 522.039 729.019 521.279 729.019 520.34C729.019 519.402 728.545 518.641 727.96 518.641C727.376 518.641 726.902 519.402 726.902 520.34C726.902 521.279 727.376 522.039 727.96 522.039Z" fill="#FF6584"/>
<path d="M734.311 512.978C734.895 512.978 735.369 512.218 735.369 511.28C735.369 510.341 734.895 509.581 734.311 509.581C733.726 509.581 733.253 510.341 733.253 511.28C733.253 512.218 733.726 512.978 734.311 512.978Z" fill="#FF6584"/>
<path d="M733.252 525.437C733.837 525.437 734.311 524.676 734.311 523.738C734.311 522.8 733.837 522.039 733.252 522.039C732.668 522.039 732.194 522.8 732.194 523.738C732.194 524.676 732.668 525.437 733.252 525.437Z" fill="#FF6584"/>
<path d="M720.551 519.774C721.136 519.774 721.61 519.013 721.61 518.075C721.61 517.137 721.136 516.376 720.551 516.376C719.967 516.376 719.493 517.137 719.493 518.075C719.493 519.013 719.967 519.774 720.551 519.774Z" fill="#FF6584"/>
<path d="M510.179 449.826C512.658 449.826 514.667 447.676 514.667 445.023C514.667 442.37 512.658 440.22 510.179 440.22C507.699 440.22 505.69 442.37 505.69 445.023C505.69 447.676 507.699 449.826 510.179 449.826Z" fill="#3F3D56"/>
<path d="M632.192 619.371L524.388 587.379L528.517 570.965L636.322 602.957L632.192 619.371Z" fill="#F9A825"/>
<path d="M616.388 613.885C579.471 621.447 541.549 621.447 504.631 613.885V596.87C541.631 603.432 579.388 603.432 616.388 596.87V613.885Z" fill="#F9A825"/>
<path d="M627.877 562.839C590.96 570.401 553.038 570.401 516.12 562.839V545.824C553.12 552.386 590.877 552.386 627.877 545.824V562.839Z" fill="#F9A825"/>
<path d="M666.522 583.257C629.605 590.82 591.682 590.82 554.765 583.257V566.242C591.765 572.804 629.522 572.804 666.522 566.242V583.257Z" fill="#F9A825"/>
<path d="M675.922 602.541C639.005 610.104 601.082 610.104 564.165 602.541V585.526C601.165 592.088 638.922 592.088 675.922 585.526V602.541Z" fill="#F9A825"/>
<path d="M708.695 627.74L598.437 647.558L595.88 630.77L706.137 610.952L708.695 627.74Z" fill="#F9A825"/>
<path d="M692.225 629.921C661.656 653.5 627.204 670.695 590.677 680.602L584.135 665.141C620.343 654.292 654.646 637.172 685.683 614.46L692.225 629.921Z" fill="#F9A825"/>
<path d="M683.039 578.328C652.471 601.907 618.019 619.101 581.491 629.009L574.95 613.548C611.157 602.699 645.46 585.579 676.498 562.867L683.039 578.328Z" fill="#F9A825"/>
<path d="M726.004 579.356C695.436 602.935 660.984 620.129 624.456 630.037L617.914 614.576C654.122 603.727 688.425 586.607 719.462 563.895L726.004 579.356Z" fill="#F9A825"/>
<path d="M741.96 592.616C711.391 616.194 676.939 633.389 640.411 643.297L633.87 627.835C670.077 616.986 704.381 599.866 735.418 577.155L741.96 592.616Z" fill="#F9A825"/>
<path d="M608.358 559.415H603.065V565.078H608.358V559.415Z" fill="#00BF71"/>
<path d="M624.234 657.95H618.942V663.613H624.234V657.95Z" fill="#00BF71"/>
<path d="M539.56 559.415H534.267V565.078H539.56V559.415Z" fill="#00BF71"/>
<path d="M662.338 629.635H657.045V635.298H662.338V629.635Z" fill="#00BF71"/>
<path d="M665.513 596.79H660.221V602.453H665.513V596.79Z" fill="#00BF71"/>
<path d="M578.213 581.285L572.082 576.834L569.705 580.583L575.836 585.034L578.213 581.285Z" fill="#00BF71"/>
<path d="M640.66 593.744L634.529 589.292L632.152 593.041L638.283 597.493L640.66 593.744Z" fill="#00BF71"/>
<path d="M564.453 615.263L558.322 610.812L555.945 614.561L562.076 619.012L564.453 615.263Z" fill="#00BF71"/>
<path d="M603.266 614.933L607.426 608.373L603.923 605.829L599.763 612.39L603.266 614.933Z" fill="#00BF71"/>
<path d="M631.844 622.862L636.004 616.301L632.5 613.757L628.341 620.318L631.844 622.862Z" fill="#00BF71"/>
<path d="M708.058 595.678L712.218 589.117L708.715 586.574L704.555 593.134L708.058 595.678Z" fill="#00BF71"/>
</g>
<path d="M1171.63 350.154V350.654H1172.13H1173.78V386.244H1172.13H1171.63V386.744V580.754C1171.63 584.585 1170.76 588.38 1169.08 591.924C1167.39 595.469 1164.92 598.694 1161.8 601.414C1158.69 604.134 1154.98 606.294 1150.89 607.77C1146.81 609.245 1142.43 610.004 1138.01 610.004H1013.12C1008.69 610.004 1004.32 609.245 1000.23 607.77C996.147 606.294 992.441 604.134 989.321 601.414C986.202 598.694 983.732 595.469 982.049 591.924C980.365 588.38 979.5 584.585 979.5 580.754V298.751C979.5 294.92 980.365 291.124 982.049 287.58C983.732 284.036 986.202 280.811 989.321 278.091C992.441 275.371 996.147 273.21 1000.23 271.735C1004.32 270.26 1008.69 269.5 1013.12 269.5H1138.01C1142.43 269.5 1146.81 270.26 1150.89 271.735C1154.98 273.21 1158.69 275.371 1161.8 278.091C1164.92 280.811 1167.39 284.036 1169.08 287.58C1170.76 291.124 1171.63 294.92 1171.63 298.751V350.154Z" fill="#3F3D56" stroke="black"/>
<path d="M1139.62 275.266H1123.26C1124.01 276.883 1124.3 278.638 1124.09 280.376C1123.89 282.113 1123.2 283.78 1122.09 285.23C1120.98 286.679 1119.48 287.867 1117.72 288.689C1115.96 289.51 1114 289.94 1112.01 289.94H1040.19C1038.2 289.94 1036.24 289.51 1034.48 288.689C1032.72 287.867 1031.22 286.679 1030.11 285.23C1029 283.78 1028.31 282.113 1028.1 280.376C1027.9 278.638 1028.19 276.883 1028.94 275.266H1013.66C1010.3 275.266 1006.97 275.846 1003.87 276.973C1000.77 278.099 997.948 279.751 995.573 281.832C993.198 283.914 991.315 286.386 990.029 289.105C988.744 291.825 988.083 294.741 988.083 297.685V581.82C988.083 584.764 988.744 587.679 990.029 590.399C991.315 593.119 993.198 595.59 995.573 597.672C997.948 599.754 1000.77 601.405 1003.87 602.532C1006.97 603.658 1010.3 604.238 1013.66 604.238H1139.62C1142.98 604.238 1146.3 603.658 1149.41 602.532C1152.51 601.405 1155.33 599.754 1157.7 597.672C1160.08 595.59 1161.96 593.119 1163.25 590.399C1164.53 587.679 1165.2 584.764 1165.2 581.82V297.685C1165.2 291.739 1162.5 286.037 1157.7 281.832C1152.91 277.628 1146.4 275.266 1139.62 275.266V275.266Z" fill="#797777" fill-opacity="0.96"/>
<path d="M1142.49 430.353H998.679V572.907H1142.49V430.353Z" fill="#797777" fill-opacity="0.96"/>
<path d="M1080.42 439.752H1033.5V442.885H1080.42V439.752Z" fill="#E6E6E6"/>
<path d="M1104.64 449.151H1033.5V453.851H1104.64V449.151Z" fill="#93BBA1"/>
<path d="M1092.53 458.551H1033.5V463.25H1092.53V458.551Z" fill="#E6E6E6"/>
<path d="M1068.31 466.383H1033.5V471.083H1068.31V466.383Z" fill="#E6E6E6"/>
<path d="M1084.96 477.349H1033.5V480.482H1084.96V477.349Z" fill="#93BBA1"/>
<path d="M1016.84 439.752H1013.82V444.452H1016.84V439.752Z" fill="#E6E6E6"/>
<path d="M1016.84 449.151H1013.82V453.851H1016.84V449.151Z" fill="#93BBA1"/>
<path d="M1016.84 458.551H1013.82V463.25H1016.84V458.551Z" fill="#E6E6E6"/>
<path d="M1016.84 466.383H1013.82V471.083H1016.84V466.383Z" fill="#E6E6E6"/>
<path d="M1016.84 475.782H1013.82V480.482H1016.84V475.782Z" fill="#93BBA1"/>
<path d="M1080.42 486.748H1033.5V489.881H1080.42V486.748Z" fill="#E6E6E6"/>
<path d="M1104.64 494.581H1033.5V499.28H1104.64V494.581Z" fill="#93BBA1"/>
<path d="M1092.53 503.98H1033.5V507.113H1092.53V503.98Z" fill="#E6E6E6"/>
<path d="M1068.31 513.379H1033.5V516.512H1068.31V513.379Z" fill="#E6E6E6"/>
<path d="M1084.96 522.778H1033.5V525.911H1084.96V522.778Z" fill="#E6E6E6"/>
<path d="M1016.84 485.182H1013.82V489.881H1016.84V485.182Z" fill="#E6E6E6"/>
<path d="M1016.84 494.581H1013.82V499.28H1016.84V494.581Z" fill="#93BBA1"/>
<path d="M1016.84 503.98H1013.82V508.68H1016.84V503.98Z" fill="#E6E6E6"/>
<path d="M1016.84 513.379H1013.82V518.079H1016.84V513.379Z" fill="#E6E6E6"/>
<path d="M1016.84 522.778H1013.82V527.478H1016.84V522.778Z" fill="#E6E6E6"/>
<path opacity="0.38" d="M1142.49 320.696H1010.79V419.387H1142.49V320.696Z" fill="#3F3D56"/>
<path d="M1054.69 431.136H1050.9V427.22H1049.39V431.136H1045.61V432.703H1049.39V436.619H1050.9V432.703H1054.69V431.136Z" fill="#797777" fill-opacity="0.96"/>
<path d="M1104.64 431.919V430.353H1097.08V431.919H1104.64Z" fill="#797777" fill-opacity="0.96"/>
<path opacity="0.2" d="M1080.42 334.794C1080.42 335.21 1080.02 335.608 1079.31 335.902C1078.61 336.196 1077.64 336.361 1076.64 336.361C1075.64 336.361 1074.67 336.196 1073.96 335.902C1073.25 335.608 1072.85 335.21 1072.85 334.794" fill="black"/>
<path d="M1054.69 570.558H1050.9V566.641H1049.39V570.558H1045.61V572.124H1049.39V576.041H1050.9V572.124H1054.69V570.558Z" fill="#797777" fill-opacity="0.96"/>
<path d="M1104.64 572.908V571.341H1097.08V572.908H1104.64Z" fill="#797777" fill-opacity="0.96"/>
<path opacity="0.2" d="M1013.82 372.391C1013.82 373.222 1013.66 374.019 1013.37 374.607C1013.09 375.194 1012.7 375.524 1012.3 375.524C1011.9 375.524 1011.52 375.194 1011.23 374.607C1010.95 374.019 1010.79 373.222 1010.79 372.391" fill="black"/>
<path d="M1075.13 408.422C1099.79 408.422 1119.78 391.589 1119.78 370.825C1119.78 350.061 1099.79 333.228 1075.13 333.228C1050.46 333.228 1030.47 350.061 1030.47 370.825C1030.47 391.589 1050.46 408.422 1075.13 408.422Z" fill="#93BBA1"/>
<path opacity="0.2" d="M1074.37 399.022C1066.66 399.022 1059.2 396.76 1053.24 392.622C1047.28 388.483 1043.21 382.724 1041.7 376.326C1040.2 369.927 1041.37 363.286 1045 357.532C1048.63 351.779 1054.51 347.27 1061.62 344.773C1068.74 342.277 1076.66 341.948 1084.04 343.841C1091.41 345.735 1097.78 349.735 1102.06 355.159C1106.34 360.583 1108.27 367.096 1107.51 373.588C1106.76 380.081 1103.37 386.15 1097.92 390.763C1094.83 393.39 1091.16 395.472 1087.12 396.89C1083.08 398.308 1078.74 399.032 1074.37 399.022V399.022ZM1074.37 344.366C1057.14 344.366 1043.12 356.235 1043.12 370.824C1043.12 385.414 1057.14 397.283 1074.37 397.283C1091.6 397.283 1105.62 385.414 1105.62 370.824C1105.62 356.235 1091.6 344.366 1074.37 344.366Z" fill="black"/>
<path d="M1075.13 399.022C1092.26 399.022 1106.16 386.749 1106.16 371.608C1106.16 356.467 1092.26 344.194 1075.13 344.194C1057.99 344.194 1044.09 356.467 1044.09 371.608C1044.09 386.749 1057.99 399.022 1075.13 399.022Z" fill="#3F3D56"/>
<path d="M1050.62 360.165C1050.36 359.763 1050.21 359.323 1050.16 358.872C1050.12 358.422 1050.18 357.968 1050.36 357.538C1050.53 357.108 1050.81 356.71 1051.18 356.366C1051.54 356.022 1051.99 355.739 1052.5 355.534C1053 355.329 1053.55 355.205 1054.11 355.17C1054.67 355.135 1055.24 355.188 1055.78 355.329C1056.31 355.469 1056.81 355.692 1057.24 355.986C1057.67 356.28 1058.02 356.639 1058.28 357.042L1067.84 372.085C1068.1 372.488 1068.26 372.927 1068.3 373.378C1068.34 373.829 1068.28 374.282 1068.1 374.712C1067.93 375.142 1067.65 375.541 1067.28 375.884C1066.92 376.228 1066.47 376.511 1065.97 376.716C1065.46 376.921 1064.91 377.045 1064.35 377.08C1063.79 377.116 1063.22 377.062 1062.68 376.922C1062.15 376.782 1061.65 376.558 1061.22 376.264C1060.79 375.97 1060.44 375.611 1060.18 375.208L1050.62 360.165Z" fill="#FF6584"/>
<path opacity="0.2" d="M1050.64 362.992L1050.15 362.137C1052.62 360.449 1055.52 359.208 1058.74 358.292L1059.23 359.147C1055.75 359.784 1052.79 360.963 1050.64 362.992Z" fill="black"/>
<path opacity="0.2" d="M1055.02 366.125L1054.69 365.27C1056.34 363.582 1058.27 362.341 1060.41 361.425L1060.74 362.28C1058.42 362.917 1056.45 364.096 1055.02 366.125Z" fill="black"/>
<path opacity="0.2" d="M1056.53 369.258L1056.2 368.403C1057.85 366.716 1059.78 365.474 1061.93 364.559L1062.26 365.413C1059.94 366.05 1057.96 367.23 1056.53 369.258Z" fill="black"/>
<path opacity="0.2" d="M1056.62 372.391L1056.2 371.536C1058.26 369.849 1060.68 368.607 1063.36 367.692L1063.77 368.546C1060.87 369.184 1058.4 370.363 1056.62 372.391Z" fill="black"/>
<path opacity="0.2" d="M1059.73 375.524L1059.23 374.954C1061.7 373.829 1064.6 373.002 1067.82 372.391L1068.31 372.961C1064.83 373.386 1061.87 374.172 1059.73 375.524Z" fill="black"/>
<path d="M1044.52 366.075C1044.29 365.701 1044.15 365.293 1044.1 364.874C1044.06 364.455 1044.13 364.034 1044.29 363.635C1044.44 363.235 1044.7 362.865 1045.04 362.546C1045.37 362.227 1045.78 361.964 1046.24 361.774C1046.71 361.583 1047.21 361.468 1047.73 361.435C1048.24 361.402 1048.76 361.453 1049.25 361.583C1049.75 361.713 1050.2 361.92 1050.59 362.193C1050.99 362.466 1051.31 362.8 1051.55 363.174L1060.32 377.147C1060.79 377.902 1060.87 378.779 1060.55 379.584C1060.23 380.39 1059.52 381.058 1058.59 381.442C1057.66 381.827 1056.58 381.896 1055.59 381.634C1054.59 381.373 1053.77 380.802 1053.29 380.048L1044.52 366.075Z" fill="#FF6584"/>
<path opacity="0.2" d="M1046.02 367.692L1045.61 367.122C1047.67 365.997 1050.08 365.169 1052.76 364.559L1053.18 365.128C1050.28 365.553 1047.81 366.339 1046.02 367.692Z" fill="black"/>
<path opacity="0.2" d="M1047.53 370.825L1047.12 369.97C1049.18 368.282 1051.6 367.041 1054.28 366.125L1054.69 366.98C1051.79 367.617 1049.32 368.796 1047.53 370.825Z" fill="black"/>
<path opacity="0.2" d="M1049.05 372.391L1048.63 372.106C1050.69 371.544 1053.11 371.13 1055.79 370.825L1056.2 371.11C1053.3 371.322 1050.84 371.715 1049.05 372.391Z" fill="black"/>
<path opacity="0.2" d="M1050.48 377.091L1050.15 376.236C1051.79 374.548 1053.73 373.307 1055.87 372.391L1056.2 373.246C1053.88 373.883 1051.91 375.062 1050.48 377.091Z" fill="black"/>
<path opacity="0.2" d="M1053.59 380.224L1053.18 379.654C1055.23 378.529 1057.65 377.701 1060.33 377.091L1060.74 377.661C1057.84 378.085 1055.38 378.872 1053.59 380.224Z" fill="black"/>
<path d="M1095.93 372.158L1095.96 372.158C1096.93 372.165 1097.89 371.933 1098.7 371.491C1099.51 371.05 1100.14 370.421 1100.5 369.685C1101.25 368.148 1101.63 366.509 1101.62 364.856C1101.56 357.862 1094.56 352.124 1085.95 352.028C1082.28 351.986 1078.71 352.975 1075.83 354.828C1072.96 356.681 1070.97 359.284 1070.19 362.195C1069.41 365.106 1069.9 368.146 1071.56 370.799C1073.23 373.453 1075.97 375.558 1079.33 376.756C1080.22 377.075 1081.2 377.169 1082.16 377.025C1083.11 376.882 1083.99 376.507 1084.68 375.951C1086.15 374.747 1087.9 373.792 1089.84 373.141C1091.77 372.49 1093.84 372.156 1095.93 372.158Z" fill="#E6E6E6"/>
<path d="M1087.24 367.692C1090.16 367.692 1092.53 365.938 1092.53 363.775C1092.53 361.612 1090.16 359.859 1087.24 359.859C1084.31 359.859 1081.94 361.612 1081.94 363.775C1081.94 365.938 1084.31 367.692 1087.24 367.692Z" fill="#F9A825"/>
<path d="M1052.42 370.825C1053.67 370.825 1054.69 370.474 1054.69 370.041C1054.69 369.609 1053.67 369.258 1052.42 369.258C1051.16 369.258 1050.15 369.609 1050.15 370.041C1050.15 370.474 1051.16 370.825 1052.42 370.825Z" fill="#3F3D56"/>
<path d="M1084.21 381.79C1085.46 381.79 1086.48 380.738 1086.48 379.441C1086.48 378.143 1085.46 377.091 1084.21 377.091C1082.95 377.091 1081.94 378.143 1081.94 379.441C1081.94 380.738 1082.95 381.79 1084.21 381.79Z" fill="#FF6584"/>
<path opacity="0.2" d="M1084.97 378.657C1084.97 379.073 1084.81 379.471 1084.52 379.765C1084.24 380.059 1083.85 380.224 1083.45 380.224C1083.05 380.224 1082.66 380.059 1082.38 379.765C1082.1 379.471 1081.94 379.073 1081.94 378.657" fill="black"/>
<path opacity="0.2" d="M1081.94 378.657C1081.94 378.242 1082.1 377.843 1082.38 377.55C1082.66 377.256 1083.05 377.091 1083.45 377.091C1083.85 377.091 1084.24 377.256 1084.52 377.55C1084.81 377.843 1084.97 378.242 1084.97 378.657" fill="black"/>
<path d="M1088.75 375.524C1090 375.524 1091.02 374.823 1091.02 373.958C1091.02 373.093 1090 372.391 1088.75 372.391C1087.5 372.391 1086.48 373.093 1086.48 373.958C1086.48 374.823 1087.5 375.524 1088.75 375.524Z" fill="#FF6584"/>
<path opacity="0.2" d="M1091.02 372.391C1091.02 373.222 1090.86 374.019 1090.58 374.607C1090.29 375.194 1089.91 375.524 1089.51 375.524C1089.1 375.524 1088.72 375.194 1088.44 374.607C1088.15 374.019 1087.99 373.222 1087.99 372.391" fill="black"/>
<path d="M1094.05 378.657C1095.72 378.657 1097.07 377.605 1097.07 376.308C1097.07 375.01 1095.72 373.958 1094.05 373.958C1092.38 373.958 1091.02 375.01 1091.02 376.308C1091.02 377.605 1092.38 378.657 1094.05 378.657Z" fill="#93BBA1"/>
<path opacity="0.2" d="M1091.02 377.091C1091.02 376.26 1091.34 375.463 1091.91 374.875C1092.47 374.288 1093.24 373.958 1094.05 373.958C1094.85 373.958 1095.62 374.288 1096.19 374.875C1096.76 375.463 1097.07 376.26 1097.07 377.091" fill="black"/>
<path d="M1082.69 378.657C1083.95 378.657 1084.97 377.605 1084.97 376.308C1084.97 375.01 1083.95 373.958 1082.69 373.958C1081.44 373.958 1080.42 375.01 1080.42 376.308C1080.42 377.605 1081.44 378.657 1082.69 378.657Z" fill="#93BBA1"/>
<path opacity="0.2" d="M1083.45 377.091C1083.45 377.506 1083.29 377.905 1083.01 378.199C1082.72 378.492 1082.34 378.657 1081.94 378.657C1081.54 378.657 1081.15 378.492 1080.87 378.199C1080.58 377.905 1080.42 377.506 1080.42 377.091" fill="black"/>
<path opacity="0.2" d="M1080.42 377.091C1080.42 376.675 1080.58 376.277 1080.87 375.983C1081.15 375.689 1081.54 375.524 1081.94 375.524C1082.34 375.524 1082.72 375.689 1083.01 375.983C1083.29 376.277 1083.45 376.675 1083.45 377.091" fill="black"/>
<path d="M1087.99 380.224C1089.66 380.224 1091.02 379.172 1091.02 377.874C1091.02 376.576 1089.66 375.524 1087.99 375.524C1086.32 375.524 1084.96 376.576 1084.96 377.874C1084.96 379.172 1086.32 380.224 1087.99 380.224Z" fill="#93BBA1"/>
<path opacity="0.2" d="M1089.51 377.091C1089.51 377.297 1089.45 377.5 1089.33 377.69C1089.22 377.88 1089.05 378.053 1088.84 378.199C1088.63 378.344 1088.38 378.459 1088.1 378.538C1087.83 378.617 1087.53 378.657 1087.24 378.657C1086.94 378.657 1086.64 378.617 1086.37 378.538C1086.09 378.459 1085.84 378.344 1085.63 378.199C1085.42 378.053 1085.25 377.88 1085.14 377.69C1085.02 377.5 1084.96 377.297 1084.96 377.091" fill="black"/>
<path opacity="0.2" d="M1084.96 377.091C1084.96 376.885 1085.02 376.681 1085.14 376.491C1085.25 376.301 1085.42 376.129 1085.63 375.983C1085.84 375.838 1086.09 375.722 1086.37 375.644C1086.64 375.565 1086.94 375.524 1087.24 375.524C1087.53 375.524 1087.83 375.565 1088.1 375.644C1088.38 375.722 1088.63 375.838 1088.84 375.983C1089.05 376.129 1089.22 376.301 1089.33 376.491C1089.45 376.681 1089.51 376.885 1089.51 377.091" fill="black"/>
<path d="M1087.24 378.657C1087.65 378.657 1087.99 378.307 1087.99 377.874C1087.99 377.442 1087.65 377.091 1087.24 377.091C1086.82 377.091 1086.48 377.442 1086.48 377.874C1086.48 378.307 1086.82 378.657 1087.24 378.657Z" fill="#93BBA1"/>
<path d="M1091.02 381.79C1091.86 381.79 1092.53 380.738 1092.53 379.441C1092.53 378.143 1091.86 377.091 1091.02 377.091C1090.18 377.091 1089.51 378.143 1089.51 379.441C1089.51 380.738 1090.18 381.79 1091.02 381.79Z" fill="#FF6584"/>
<path opacity="0.2" d="M1092.53 380.224C1092.53 380.639 1092.37 381.038 1092.09 381.332C1091.81 381.625 1091.42 381.79 1091.02 381.79C1090.62 381.79 1090.23 381.625 1089.95 381.332C1089.67 381.038 1089.51 380.639 1089.51 380.224" fill="black"/>
<path opacity="0.2" d="M1089.51 380.224C1089.51 379.393 1089.67 378.596 1089.95 378.009C1090.23 377.421 1090.62 377.091 1091.02 377.091C1091.42 377.091 1091.81 377.421 1092.09 378.009C1092.37 378.596 1092.53 379.393 1092.53 380.224" fill="black"/>
<path d="M1079.75 391.19L1062.26 388.084L1062.93 386.49L1080.42 389.596L1079.75 391.19Z" fill="#F9A825"/>
<path d="M1077.4 390.406C1071.9 391.451 1066.24 391.451 1060.74 390.406V388.057C1066.26 388.963 1071.88 388.963 1077.4 388.057V390.406Z" fill="#F9A825"/>
<path d="M1077.4 385.315C1072.4 386.882 1067.26 386.882 1062.26 385.315V381.79C1067.27 383.15 1072.38 383.15 1077.4 381.79V385.315Z" fill="#F9A825"/>
<path d="M1083.45 388.84C1078.95 389.884 1074.33 389.884 1069.83 388.84V386.49C1074.34 387.396 1078.94 387.396 1083.45 386.49V388.84Z" fill="#F9A825"/>
<path d="M1087.99 391.778L1073.2 394.323L1072.85 392.167L1087.65 389.623L1087.99 391.778Z" fill="#F9A825"/>
<path d="M1084.96 391.454C1081.54 394.246 1077.68 396.282 1073.59 397.456L1072.85 395.625C1076.91 394.34 1080.75 392.313 1084.23 389.623L1084.96 391.454Z" fill="#F9A825"/>
<path d="M1084.96 386.754C1080.68 389.547 1075.86 391.583 1070.74 392.756L1069.83 390.925C1074.9 389.64 1079.7 387.613 1084.05 384.923L1084.96 386.754Z" fill="#F9A825"/>
<path d="M1091.02 386.754C1087.17 389.547 1082.82 391.583 1078.22 392.756L1077.4 390.925C1081.96 389.64 1086.28 387.613 1090.2 384.923L1091.02 386.754Z" fill="#F9A825"/>
<path d="M1092.53 388.321C1088.68 391.113 1084.34 393.149 1079.73 394.323L1078.91 392.492C1083.47 391.207 1087.8 389.18 1091.71 386.49L1092.53 388.321Z" fill="#F9A825"/>
<path d="M1074.37 384.923H1072.85V386.49H1074.37V384.923Z" fill="#00BF71"/>
<path d="M1065.29 384.923H1063.77V386.49H1065.29V384.923Z" fill="#00BF71"/>
<path d="M1081.94 388.057H1080.42V389.623H1081.94V388.057Z" fill="#00BF71"/>
<path d="M1070.83 386.82L1069.99 386.338L1069.67 386.744L1070.5 387.226L1070.83 386.82Z" fill="#00BF71"/>
<path d="M1079.3 388.166L1078.47 387.685L1078.14 388.091L1078.98 388.572L1079.3 388.166Z" fill="#00BF71"/>
<path d="M1068.96 390.492L1068.13 390.011L1067.81 390.417L1068.64 390.898L1068.96 390.492Z" fill="#00BF71"/>
<path d="M1074.23 390.456L1074.79 389.747L1074.32 389.472L1073.75 390.181L1074.23 390.456Z" fill="#00BF71"/>
<path d="M1078.1 391.313L1078.67 390.604L1078.19 390.329L1077.63 391.038L1078.1 391.313Z" fill="#00BF71"/>
<path d="M1088.44 388.375L1089.01 387.666L1088.53 387.391L1087.97 388.1L1088.44 388.375Z" fill="#00BF71"/>
<defs>
<clipPath id="clip0">
<rect y="85.9911" width="1209.1" height="707.359" fill="white"/>
</clipPath>
</defs>
</svg>
