<svg width="899" height="706" viewBox="0 0 899 706" fill="none" xmlns="http://www.w3.org/2000/svg">
<path d="M329.182 705.464C510.979 705.464 658.354 547.762 658.354 353.227C658.354 158.693 510.979 0.99115 329.182 0.99115C147.386 0.99115 0.0104675 158.693 0.0104675 353.227C0.0104675 547.762 147.386 705.464 329.182 705.464Z" fill="#93BBA1"/>
<path opacity="0.2" d="M329.182 610.326C273.596 610.325 219.73 589.701 176.762 551.967C133.794 514.232 104.382 461.723 93.5381 403.385C82.6941 345.047 91.0889 284.491 117.292 232.034C143.495 179.576 185.886 138.464 237.24 115.702C288.595 92.9402 345.737 89.9365 398.929 107.203C452.121 124.469 498.073 160.938 528.955 210.394C559.837 259.85 573.737 319.235 568.289 378.429C562.841 437.623 538.38 492.965 499.075 535.024C476.816 558.972 450.339 577.959 421.177 590.885C392.015 603.81 360.747 610.418 329.182 610.326ZM329.182 111.985C204.871 111.985 103.737 220.206 103.737 353.227C103.737 486.248 204.871 594.47 329.182 594.47C453.493 594.47 554.628 486.248 554.628 353.227C554.628 220.206 453.493 111.985 329.182 111.985Z" fill="black"/>
<path d="M329.182 602.398C457.784 602.398 562.037 490.84 562.037 353.227C562.037 215.614 457.784 104.057 329.182 104.057C200.58 104.057 96.3276 215.614 96.3276 353.227C96.3276 490.84 200.58 602.398 329.182 602.398Z" fill="#3F3D56"/>
<path d="M156.013 253.594C154.247 249.893 153.18 245.856 152.874 241.714C152.567 237.571 153.026 233.404 154.225 229.452C155.424 225.499 157.339 221.838 159.861 218.678C162.383 215.518 165.462 212.921 168.923 211.035C172.383 209.15 176.157 208.012 180.029 207.688C183.901 207.364 187.794 207.86 191.486 209.147C195.179 210.434 198.598 212.487 201.549 215.189C204.499 217.891 206.923 221.189 208.682 224.894L274.469 363.132C276.235 366.833 277.302 370.871 277.609 375.013C277.916 379.156 277.456 383.322 276.258 387.275C275.059 391.227 273.143 394.888 270.621 398.048C268.099 401.208 265.02 403.806 261.56 405.691C258.099 407.577 254.325 408.715 250.453 409.039C246.582 409.363 242.688 408.867 238.996 407.58C235.303 406.293 231.884 404.239 228.934 401.537C225.983 398.835 223.559 395.538 221.801 391.833L156.013 253.594Z" fill="#FF6584"/>
<path opacity="0.2" d="M163.351 269.013L160.315 262.633C175.468 250.034 193.263 240.768 212.983 233.933L216.019 240.313C194.676 245.069 176.517 253.871 163.351 269.013Z" fill="black"/>
<path opacity="0.2" d="M177.521 298.788L174.484 292.407C189.638 279.808 207.432 270.542 227.153 263.707L230.189 270.087C208.845 274.843 190.687 283.645 177.521 298.788Z" fill="black"/>
<path opacity="0.2" d="M191.69 328.562L188.654 322.182C203.808 309.583 221.602 300.317 241.322 293.481L244.359 299.862C223.015 304.618 204.857 313.419 191.69 328.562Z" fill="black"/>
<path opacity="0.2" d="M205.86 358.336L202.824 351.956C217.977 339.357 235.771 330.091 255.492 323.256L258.528 329.636C237.185 334.392 219.026 343.194 205.86 358.336Z" fill="black"/>
<path opacity="0.2" d="M220.03 388.111L216.993 381.73C232.147 369.131 249.941 359.865 269.661 353.03L272.698 359.41C251.354 364.166 233.196 372.968 220.03 388.111Z" fill="black"/>
<path d="M106.658 305.346C104.892 301.645 103.826 297.608 103.519 293.465C103.213 289.323 103.672 285.157 104.871 281.204C106.07 277.252 107.985 273.592 110.507 270.432C113.029 267.272 116.108 264.675 119.569 262.79C123.029 260.904 126.803 259.767 130.674 259.442C134.545 259.118 138.438 259.614 142.131 260.901C145.823 262.187 149.242 264.24 152.193 266.942C155.143 269.644 157.567 272.941 159.326 276.645L225.113 414.883C228.66 422.356 229.29 431.03 226.864 438.999C224.438 446.967 219.155 453.58 212.176 457.383C205.196 461.187 197.091 461.869 189.641 459.282C182.192 456.694 176.007 451.048 172.445 443.584L106.658 305.346Z" fill="#FF6584"/>
<path opacity="0.2" d="M113.995 320.765L110.959 314.384C126.113 301.785 143.907 292.519 163.627 285.684L166.664 292.064C145.32 296.82 127.162 305.622 113.995 320.765Z" fill="black"/>
<path opacity="0.2" d="M128.165 350.539L125.129 344.159C140.282 331.56 158.076 322.294 177.797 315.458L180.833 321.839C159.49 326.595 141.331 335.396 128.165 350.539Z" fill="black"/>
<path opacity="0.2" d="M142.335 380.313L139.298 373.933C154.452 361.334 172.246 352.068 191.966 345.233L195.003 351.613C173.659 356.369 155.501 365.171 142.335 380.313Z" fill="black"/>
<path opacity="0.2" d="M156.504 410.088L153.468 403.707C168.621 391.108 186.416 381.842 206.136 375.007L209.173 381.387C187.829 386.143 169.67 394.945 156.504 410.088Z" fill="black"/>
<path opacity="0.2" d="M170.674 439.862L167.638 433.482C182.791 420.883 200.585 411.617 220.306 404.781L223.342 411.162C201.998 415.918 183.84 424.719 170.674 439.862Z" fill="black"/>
<path d="M484.772 361.156L484.979 361.156C492.065 361.219 499.005 358.996 504.892 354.776C510.78 350.556 515.342 344.536 517.983 337.5C523.417 322.803 526.155 307.125 526.048 291.321C525.679 224.429 474.822 169.552 412.315 168.627C385.694 168.228 359.764 177.692 338.92 195.414C318.075 213.136 303.599 238.026 297.945 265.865C292.291 293.704 295.807 322.778 307.897 348.159C319.988 373.541 339.908 393.668 364.282 405.128C370.723 408.18 377.876 409.077 384.802 407.703C391.728 406.328 398.105 402.746 403.095 397.426C413.799 385.912 426.527 376.779 440.545 370.554C454.563 364.329 469.594 361.135 484.772 361.156Z" fill="#E6E6E6"/>
<path d="M425.499 323.78C446.543 323.78 463.603 305.525 463.603 283.007C463.603 260.488 446.543 242.233 425.499 242.233C404.455 242.233 387.396 260.488 387.396 283.007C387.396 305.525 404.455 323.78 425.499 323.78Z" fill="#F9A825"/>
<path d="M342.687 278.422C345.166 278.422 347.176 276.271 347.176 273.618C347.176 270.966 345.166 268.815 342.687 268.815C340.208 268.815 338.198 270.966 338.198 273.618C338.198 276.271 340.208 278.422 342.687 278.422Z" fill="#3F3D56"/>
<path d="M194.507 282.952C196.986 282.952 198.995 280.802 198.995 278.149C198.995 275.496 196.986 273.345 194.507 273.345C192.028 273.345 190.018 275.496 190.018 278.149C190.018 280.802 192.028 282.952 194.507 282.952Z" fill="#3F3D56"/>
<path d="M366.61 228.642C369.089 228.642 371.099 226.492 371.099 223.839C371.099 221.186 369.089 219.036 366.61 219.036C364.131 219.036 362.121 221.186 362.121 223.839C362.121 226.492 364.131 228.642 366.61 228.642Z" fill="#3F3D56"/>
<path d="M366.482 367.091C368.961 367.091 370.971 364.941 370.971 362.288C370.971 359.635 368.961 357.485 366.482 357.485C364.003 357.485 361.994 359.635 361.994 362.288C361.994 364.941 364.003 367.091 366.482 367.091Z" fill="#3F3D56"/>
<path d="M455.391 218.722C457.87 218.722 459.879 216.571 459.879 213.919C459.879 211.266 457.87 209.115 455.391 209.115C452.912 209.115 450.902 211.266 450.902 213.919C450.902 216.571 452.912 218.722 455.391 218.722Z" fill="#3F3D56"/>
<path d="M165.381 350.102C167.86 350.102 169.869 347.952 169.869 345.299C169.869 342.646 167.86 340.496 165.381 340.496C162.902 340.496 160.892 342.646 160.892 345.299C160.892 347.952 162.902 350.102 165.381 350.102Z" fill="#3F3D56"/>
<path d="M198.192 419.191C200.671 419.191 202.681 417.04 202.681 414.387C202.681 411.735 200.671 409.584 198.192 409.584C195.713 409.584 193.703 411.735 193.703 414.387C193.703 417.04 195.713 419.191 198.192 419.191Z" fill="#3F3D56"/>
<path d="M404.331 441.57C413.684 441.57 421.266 433.456 421.266 423.448C421.266 413.44 413.684 405.327 404.331 405.327C394.978 405.327 387.396 413.44 387.396 423.448C387.396 433.456 394.978 441.57 404.331 441.57Z" fill="#FF6584"/>
<path opacity="0.2" d="M417.032 424.581C417.032 428.185 415.694 431.642 413.312 434.191C410.93 436.74 407.699 438.172 404.331 438.172C400.962 438.172 397.732 436.74 395.35 434.191C392.968 431.642 391.63 428.185 391.63 424.581" fill="black"/>
<path opacity="0.2" d="M391.63 422.315C391.63 418.711 392.968 415.254 395.35 412.705C397.732 410.156 400.962 408.724 404.331 408.724C407.699 408.724 410.93 410.156 413.312 412.705C415.694 415.254 417.032 418.711 417.032 422.315" fill="black"/>
<path d="M397.98 418.918C398.565 418.918 399.039 418.157 399.039 417.219C399.039 416.281 398.565 415.52 397.98 415.52C397.396 415.52 396.922 416.281 396.922 417.219C396.922 418.157 397.396 418.918 397.98 418.918Z" fill="#FF6584"/>
<path d="M404.331 416.653C404.915 416.653 405.389 415.892 405.389 414.954C405.389 414.015 404.915 413.255 404.331 413.255C403.746 413.255 403.272 414.015 403.272 414.954C403.272 415.892 403.746 416.653 404.331 416.653Z" fill="#FF6584"/>
<path d="M404.331 431.376C404.915 431.376 405.389 430.616 405.389 429.677C405.389 428.739 404.915 427.978 404.331 427.978C403.746 427.978 403.272 428.739 403.272 429.677C403.272 430.616 403.746 431.376 404.331 431.376Z" fill="#FF6584"/>
<path d="M410.681 422.315C411.266 422.315 411.74 421.555 411.74 420.617C411.74 419.678 411.266 418.918 410.681 418.918C410.097 418.918 409.623 419.678 409.623 420.617C409.623 421.555 410.097 422.315 410.681 422.315Z" fill="#FF6584"/>
<path d="M409.623 434.774C410.208 434.774 410.681 434.013 410.681 433.075C410.681 432.137 410.208 431.376 409.623 431.376C409.039 431.376 408.565 432.137 408.565 433.075C408.565 434.013 409.039 434.774 409.623 434.774Z" fill="#FF6584"/>
<path d="M396.922 429.111C397.506 429.111 397.98 428.35 397.98 427.412C397.98 426.474 397.506 425.713 396.922 425.713C396.337 425.713 395.863 426.474 395.863 427.412C395.863 428.35 396.337 429.111 396.922 429.111Z" fill="#FF6584"/>
<path d="M438.201 392.868C447.554 392.868 455.136 384.755 455.136 374.747C455.136 364.738 447.554 356.625 438.201 356.625C428.848 356.625 421.266 364.738 421.266 374.747C421.266 384.755 428.848 392.868 438.201 392.868Z" fill="#FF6584"/>
<path opacity="0.2" d="M450.902 375.879C450.902 379.484 449.564 382.941 447.182 385.49C444.8 388.038 441.569 389.47 438.201 389.47C434.832 389.47 431.601 388.038 429.22 385.49C426.838 382.941 425.5 379.484 425.5 375.879" fill="black"/>
<path opacity="0.2" d="M425.5 373.614C425.5 370.009 426.838 366.553 429.22 364.004C431.601 361.455 434.832 360.023 438.201 360.023C441.569 360.023 444.8 361.455 447.182 364.004C449.564 366.553 450.902 370.009 450.902 373.614" fill="black"/>
<path d="M431.85 370.216C432.435 370.216 432.908 369.456 432.908 368.517C432.908 367.579 432.435 366.818 431.85 366.818C431.266 366.818 430.792 367.579 430.792 368.517C430.792 369.456 431.266 370.216 431.85 370.216Z" fill="#FF6584"/>
<path d="M438.201 367.951C438.785 367.951 439.259 367.19 439.259 366.252C439.259 365.314 438.785 364.553 438.201 364.553C437.616 364.553 437.142 365.314 437.142 366.252C437.142 367.19 437.616 367.951 438.201 367.951Z" fill="#FF6584"/>
<path d="M438.201 382.675C438.785 382.675 439.259 381.914 439.259 380.976C439.259 380.038 438.785 379.277 438.201 379.277C437.616 379.277 437.142 380.038 437.142 380.976C437.142 381.914 437.616 382.675 438.201 382.675Z" fill="#FF6584"/>
<path d="M444.551 373.614C445.136 373.614 445.61 372.853 445.61 371.915C445.61 370.977 445.136 370.216 444.551 370.216C443.967 370.216 443.493 370.977 443.493 371.915C443.493 372.853 443.967 373.614 444.551 373.614Z" fill="#FF6584"/>
<path d="M443.493 386.073C444.077 386.073 444.551 385.312 444.551 384.374C444.551 383.435 444.077 382.675 443.493 382.675C442.908 382.675 442.434 383.435 442.434 384.374C442.434 385.312 442.908 386.073 443.493 386.073Z" fill="#FF6584"/>
<path d="M430.792 380.41C431.376 380.41 431.85 379.649 431.85 378.711C431.85 377.772 431.376 377.012 430.792 377.012C430.207 377.012 429.733 377.772 429.733 378.711C429.733 379.649 430.207 380.41 430.792 380.41Z" fill="#FF6584"/>
<path d="M472.07 417.785C481.423 417.785 489.005 409.672 489.005 399.664C489.005 389.655 481.423 381.542 472.07 381.542C462.717 381.542 455.135 389.655 455.135 399.664C455.135 409.672 462.717 417.785 472.07 417.785Z" fill="#93BBA1"/>
<path opacity="0.2" d="M484.772 400.796C484.772 404.401 483.434 407.858 481.052 410.407C478.67 412.956 475.439 414.387 472.07 414.387C468.702 414.387 465.471 412.956 463.089 410.407C460.707 407.858 459.369 404.401 459.369 400.796" fill="black"/>
<path opacity="0.2" d="M459.369 398.531C459.369 394.926 460.707 391.47 463.089 388.921C465.471 386.372 468.702 384.94 472.07 384.94C475.439 384.94 478.67 386.372 481.052 388.921C483.434 391.47 484.772 394.926 484.772 398.531" fill="black"/>
<path d="M465.72 395.133C466.304 395.133 466.778 394.373 466.778 393.434C466.778 392.496 466.304 391.736 465.72 391.736C465.135 391.736 464.661 392.496 464.661 393.434C464.661 394.373 465.135 395.133 465.72 395.133Z" fill="#93BBA1"/>
<path d="M472.07 392.868C472.655 392.868 473.129 392.107 473.129 391.169C473.129 390.231 472.655 389.47 472.07 389.47C471.486 389.47 471.012 390.231 471.012 391.169C471.012 392.107 471.486 392.868 472.07 392.868Z" fill="#93BBA1"/>
<path d="M472.07 407.592C472.655 407.592 473.129 406.831 473.129 405.893C473.129 404.955 472.655 404.194 472.07 404.194C471.486 404.194 471.012 404.955 471.012 405.893C471.012 406.831 471.486 407.592 472.07 407.592Z" fill="#93BBA1"/>
<path d="M478.421 398.531C479.005 398.531 479.479 397.77 479.479 396.832C479.479 395.894 479.005 395.133 478.421 395.133C477.836 395.133 477.362 395.894 477.362 396.832C477.362 397.77 477.836 398.531 478.421 398.531Z" fill="#93BBA1"/>
<path d="M477.363 410.99C477.947 410.99 478.421 410.229 478.421 409.291C478.421 408.352 477.947 407.592 477.363 407.592C476.778 407.592 476.304 408.352 476.304 409.291C476.304 410.229 476.778 410.99 477.363 410.99Z" fill="#93BBA1"/>
<path d="M464.661 405.327C465.246 405.327 465.72 404.566 465.72 403.628C465.72 402.689 465.246 401.929 464.661 401.929C464.077 401.929 463.603 402.689 463.603 403.628C463.603 404.566 464.077 405.327 464.661 405.327Z" fill="#93BBA1"/>
<path d="M387.396 420.05C396.749 420.05 404.331 411.937 404.331 401.929C404.331 391.921 396.749 383.807 387.396 383.807C378.043 383.807 370.461 391.921 370.461 401.929C370.461 411.937 378.043 420.05 387.396 420.05Z" fill="#93BBA1"/>
<path opacity="0.2" d="M400.097 403.061C400.097 406.666 398.759 410.123 396.377 412.672C393.995 415.221 390.765 416.653 387.396 416.653C384.027 416.653 380.797 415.221 378.415 412.672C376.033 410.123 374.695 406.666 374.695 403.061" fill="black"/>
<path opacity="0.2" d="M374.695 400.796C374.695 397.192 376.033 393.735 378.415 391.186C380.797 388.637 384.027 387.205 387.396 387.205C390.765 387.205 393.995 388.637 396.377 391.186C398.759 393.735 400.097 397.192 400.097 400.796" fill="black"/>
<path d="M381.045 397.398C381.63 397.398 382.104 396.638 382.104 395.7C382.104 394.761 381.63 394.001 381.045 394.001C380.461 394.001 379.987 394.761 379.987 395.7C379.987 396.638 380.461 397.398 381.045 397.398Z" fill="#93BBA1"/>
<path d="M387.396 395.133C387.98 395.133 388.454 394.373 388.454 393.434C388.454 392.496 387.98 391.736 387.396 391.736C386.811 391.736 386.338 392.496 386.338 393.434C386.338 394.373 386.811 395.133 387.396 395.133Z" fill="#93BBA1"/>
<path d="M387.396 409.857C387.98 409.857 388.454 409.096 388.454 408.158C388.454 407.22 387.98 406.459 387.396 406.459C386.811 406.459 386.338 407.22 386.338 408.158C386.338 409.096 386.811 409.857 387.396 409.857Z" fill="#93BBA1"/>
<path d="M393.747 400.796C394.331 400.796 394.805 400.036 394.805 399.097C394.805 398.159 394.331 397.398 393.747 397.398C393.162 397.398 392.688 398.159 392.688 399.097C392.688 400.036 393.162 400.796 393.747 400.796Z" fill="#93BBA1"/>
<path d="M392.688 413.255C393.273 413.255 393.747 412.494 393.747 411.556C393.747 410.618 393.273 409.857 392.688 409.857C392.104 409.857 391.63 410.618 391.63 411.556C391.63 412.494 392.104 413.255 392.688 413.255Z" fill="#93BBA1"/>
<path d="M379.987 407.592C380.572 407.592 381.045 406.831 381.045 405.893C381.045 404.955 380.572 404.194 379.987 404.194C379.402 404.194 378.929 404.955 378.929 405.893C378.929 406.831 379.402 407.592 379.987 407.592Z" fill="#93BBA1"/>
<path d="M425.499 427.978C434.852 427.978 442.434 419.865 442.434 409.857C442.434 399.849 434.852 391.736 425.499 391.736C416.147 391.736 408.565 399.849 408.565 409.857C408.565 419.865 416.147 427.978 425.499 427.978Z" fill="#93BBA1"/>
<path opacity="0.2" d="M438.201 410.99C438.201 412.774 437.872 414.542 437.234 416.191C436.595 417.84 435.66 419.338 434.48 420.6C433.301 421.862 431.901 422.863 430.36 423.546C428.819 424.229 427.167 424.581 425.499 424.581C423.832 424.581 422.18 424.229 420.639 423.546C419.098 422.863 417.698 421.862 416.518 420.6C415.339 419.338 414.403 417.84 413.765 416.191C413.127 414.542 412.798 412.774 412.798 410.99" fill="black"/>
<path opacity="0.2" d="M412.798 408.724C412.798 406.94 413.127 405.172 413.765 403.523C414.403 401.874 415.339 400.376 416.518 399.114C417.698 397.852 419.098 396.851 420.639 396.168C422.18 395.485 423.832 395.133 425.499 395.133C427.167 395.133 428.819 395.485 430.36 396.168C431.901 396.851 433.301 397.852 434.48 399.114C435.66 400.376 436.595 401.874 437.234 403.523C437.872 405.172 438.201 406.94 438.201 408.724" fill="black"/>
<path d="M419.149 405.327C419.733 405.327 420.207 404.566 420.207 403.628C420.207 402.689 419.733 401.929 419.149 401.929C418.564 401.929 418.09 402.689 418.09 403.628C418.09 404.566 418.564 405.327 419.149 405.327Z" fill="#93BBA1"/>
<path d="M425.499 403.061C426.084 403.061 426.558 402.301 426.558 401.363C426.558 400.424 426.084 399.664 425.499 399.664C424.915 399.664 424.441 400.424 424.441 401.363C424.441 402.301 424.915 403.061 425.499 403.061Z" fill="#93BBA1"/>
<path d="M425.499 417.785C426.084 417.785 426.558 417.024 426.558 416.086C426.558 415.148 426.084 414.387 425.499 414.387C424.915 414.387 424.441 415.148 424.441 416.086C424.441 417.024 424.915 417.785 425.499 417.785Z" fill="#93BBA1"/>
<path d="M431.85 408.724C432.435 408.724 432.908 407.964 432.908 407.025C432.908 406.087 432.435 405.327 431.85 405.327C431.266 405.327 430.792 406.087 430.792 407.025C430.792 407.964 431.266 408.724 431.85 408.724Z" fill="#93BBA1"/>
<path d="M430.792 421.183C431.376 421.183 431.85 420.422 431.85 419.484C431.85 418.546 431.376 417.785 430.792 417.785C430.207 417.785 429.733 418.546 429.733 419.484C429.733 420.422 430.207 421.183 430.792 421.183Z" fill="#93BBA1"/>
<path d="M418.09 415.52C418.675 415.52 419.149 414.759 419.149 413.821C419.149 412.883 418.675 412.122 418.09 412.122C417.506 412.122 417.032 412.883 417.032 413.821C417.032 414.759 417.506 415.52 418.09 415.52Z" fill="#93BBA1"/>
<path d="M451.96 447.233C461.313 447.233 468.895 439.119 468.895 429.111C468.895 419.103 461.313 410.99 451.96 410.99C442.607 410.99 435.025 419.103 435.025 429.111C435.025 439.119 442.607 447.233 451.96 447.233Z" fill="#FF6584"/>
<path opacity="0.2" d="M464.661 430.244C464.661 433.848 463.323 437.305 460.941 439.854C458.559 442.403 455.329 443.835 451.96 443.835C448.592 443.835 445.361 442.403 442.979 439.854C440.597 437.305 439.259 433.848 439.259 430.244" fill="black"/>
<path opacity="0.2" d="M439.259 427.978C439.259 424.374 440.597 420.917 442.979 418.368C445.361 415.819 448.592 414.387 451.96 414.387C455.329 414.387 458.559 415.819 460.941 418.368C463.323 420.917 464.661 424.374 464.661 427.978" fill="black"/>
<path d="M445.61 424.581C446.194 424.581 446.668 423.82 446.668 422.882C446.668 421.943 446.194 421.183 445.61 421.183C445.025 421.183 444.551 421.943 444.551 422.882C444.551 423.82 445.025 424.581 445.61 424.581Z" fill="#FF6584"/>
<path d="M451.96 422.315C452.545 422.315 453.019 421.555 453.019 420.617C453.019 419.678 452.545 418.918 451.96 418.918C451.376 418.918 450.902 419.678 450.902 420.617C450.902 421.555 451.376 422.315 451.96 422.315Z" fill="#FF6584"/>
<path d="M451.96 437.039C452.545 437.039 453.019 436.279 453.019 435.34C453.019 434.402 452.545 433.641 451.96 433.641C451.376 433.641 450.902 434.402 450.902 435.34C450.902 436.279 451.376 437.039 451.96 437.039Z" fill="#FF6584"/>
<path d="M458.311 427.978C458.895 427.978 459.369 427.218 459.369 426.28C459.369 425.341 458.895 424.581 458.311 424.581C457.726 424.581 457.253 425.341 457.253 426.28C457.253 427.218 457.726 427.978 458.311 427.978Z" fill="#FF6584"/>
<path d="M457.252 440.437C457.837 440.437 458.311 439.676 458.311 438.738C458.311 437.8 457.837 437.039 457.252 437.039C456.668 437.039 456.194 437.8 456.194 438.738C456.194 439.676 456.668 440.437 457.252 440.437Z" fill="#FF6584"/>
<path d="M444.551 434.774C445.136 434.774 445.61 434.013 445.61 433.075C445.61 432.137 445.136 431.376 444.551 431.376C443.967 431.376 443.493 432.137 443.493 433.075C443.493 434.013 443.967 434.774 444.551 434.774Z" fill="#FF6584"/>
<path d="M234.179 364.826C236.658 364.826 238.667 362.676 238.667 360.023C238.667 357.37 236.658 355.22 234.179 355.22C231.699 355.22 229.69 357.37 229.69 360.023C229.69 362.676 231.699 364.826 234.179 364.826Z" fill="#3F3D56"/>
<path d="M356.192 534.371L248.388 502.379L252.517 485.965L360.322 517.957L356.192 534.371Z" fill="#F9A825"/>
<path d="M340.388 528.885C303.471 536.447 265.549 536.447 228.631 528.885V511.87C265.631 518.432 303.388 518.432 340.388 511.87V528.885Z" fill="#F9A825"/>
<path d="M351.877 477.839C314.96 485.401 277.038 485.401 240.12 477.839V460.824C277.12 467.386 314.877 467.386 351.877 460.824V477.839Z" fill="#F9A825"/>
<path d="M390.522 498.257C353.605 505.82 315.682 505.82 278.765 498.257V481.242C315.765 487.804 353.522 487.804 390.522 481.242V498.257Z" fill="#F9A825"/>
<path d="M399.922 517.541C363.005 525.104 325.082 525.104 288.165 517.541V500.526C325.165 507.088 362.922 507.088 399.922 500.526V517.541Z" fill="#F9A825"/>
<path d="M432.695 542.74L322.437 562.558L319.88 545.77L430.137 525.952L432.695 542.74Z" fill="#F9A825"/>
<path d="M416.225 544.921C385.656 568.5 351.204 585.695 314.677 595.602L308.135 580.141C344.343 569.292 378.646 552.172 409.683 529.46L416.225 544.921Z" fill="#F9A825"/>
<path d="M407.039 493.328C376.471 516.907 342.019 534.101 305.491 544.009L298.95 528.548C335.157 517.699 369.46 500.579 400.498 477.867L407.039 493.328Z" fill="#F9A825"/>
<path d="M450.004 494.356C419.436 517.935 384.984 535.129 348.456 545.037L341.914 529.576C378.122 518.727 412.425 501.607 443.462 478.895L450.004 494.356Z" fill="#F9A825"/>
<path d="M465.96 507.616C435.391 531.194 400.939 548.389 364.411 558.297L357.87 542.835C394.077 531.986 428.381 514.866 459.418 492.155L465.96 507.616Z" fill="#F9A825"/>
<path d="M332.358 474.415H327.065V480.078H332.358V474.415Z" fill="#00BF71"/>
<path d="M348.234 572.95H342.942V578.613H348.234V572.95Z" fill="#00BF71"/>
<path d="M263.56 474.415H258.267V480.078H263.56V474.415Z" fill="#00BF71"/>
<path d="M386.338 544.635H381.045V550.298H386.338V544.635Z" fill="#00BF71"/>
<path d="M389.513 511.79H384.221V517.453H389.513V511.79Z" fill="#00BF71"/>
<path d="M302.213 496.285L296.082 491.834L293.705 495.583L299.836 500.034L302.213 496.285Z" fill="#00BF71"/>
<path d="M364.66 508.744L358.529 504.292L356.152 508.041L362.283 512.493L364.66 508.744Z" fill="#00BF71"/>
<path d="M288.453 530.263L282.322 525.812L279.945 529.561L286.076 534.012L288.453 530.263Z" fill="#00BF71"/>
<path d="M327.266 529.933L331.426 523.373L327.923 520.829L323.763 527.39L327.266 529.933Z" fill="#00BF71"/>
<path d="M355.844 537.862L360.004 531.301L356.5 528.757L352.341 535.318L355.844 537.862Z" fill="#00BF71"/>
<path d="M432.058 510.678L436.218 504.117L432.715 501.574L428.555 508.134L432.058 510.678Z" fill="#00BF71"/>
<path d="M895.626 265.154V265.654H896.126H897.778V301.244H896.126H895.626V301.744V495.754C895.626 499.585 894.761 503.38 893.077 506.924C891.394 510.469 888.924 513.694 885.805 516.414C882.685 519.134 878.979 521.294 874.895 522.77C870.811 524.245 866.432 525.004 862.008 525.004H737.118C732.694 525.004 728.315 524.245 724.231 522.77C720.147 521.294 716.441 519.134 713.321 516.414C710.202 513.694 707.732 510.469 706.049 506.924C704.365 503.38 703.5 499.585 703.5 495.754V213.751C703.5 209.92 704.365 206.124 706.049 202.58C707.732 199.036 710.202 195.811 713.321 193.091C716.441 190.371 720.147 188.21 724.231 186.735C728.315 185.26 732.694 184.5 737.118 184.5H862.008C866.432 184.5 870.811 185.26 874.895 186.735C878.979 188.21 882.685 190.371 885.805 193.091C888.924 195.811 891.394 199.036 893.077 202.58C894.761 206.124 895.626 209.92 895.626 213.751V265.154Z" fill="#3F3D56" stroke="black"/>
<path d="M863.621 190.266H847.257C848.009 191.883 848.297 193.638 848.093 195.376C847.89 197.113 847.202 198.78 846.091 200.23C844.98 201.679 843.479 202.867 841.72 203.689C839.962 204.51 838 204.94 836.007 204.94H764.19C762.198 204.94 760.236 204.51 758.478 203.689C756.719 202.867 755.218 201.679 754.107 200.23C752.995 198.78 752.308 197.113 752.104 195.376C751.901 193.638 752.188 191.883 752.941 190.266H737.657C734.299 190.266 730.973 190.846 727.87 191.973C724.767 193.099 721.948 194.751 719.573 196.832C717.198 198.914 715.315 201.386 714.029 204.105C712.744 206.825 712.083 209.741 712.083 212.685V496.82C712.083 499.764 712.744 502.679 714.029 505.399C715.315 508.119 717.198 510.59 719.573 512.672C721.948 514.754 724.767 516.405 727.87 517.532C730.973 518.658 734.299 519.238 737.657 519.238H863.621C866.979 519.238 870.305 518.658 873.408 517.532C876.51 516.405 879.33 514.754 881.705 512.672C884.079 510.59 885.963 508.119 887.248 505.399C888.534 502.679 889.195 499.764 889.195 496.82V212.685C889.195 206.739 886.501 201.037 881.704 196.832C876.908 192.628 870.403 190.266 863.621 190.266Z" fill="#797777" fill-opacity="0.96"/>
<path d="M866.489 345.353H722.679V487.907H866.489V345.353Z" fill="#797777" fill-opacity="0.96"/>
<path d="M804.423 354.752H757.496V357.885H804.423V354.752Z" fill="#E6E6E6"/>
<path d="M828.644 364.151H757.496V368.851H828.644V364.151Z" fill="#93BBA1"/>
<path d="M816.534 373.551H757.496V378.25H816.534V373.551Z" fill="#E6E6E6"/>
<path d="M792.313 381.383H757.496V386.083H792.313V381.383Z" fill="#E6E6E6"/>
<path d="M808.965 392.349H757.496V395.482H808.965V392.349Z" fill="#93BBA1"/>
<path d="M740.845 354.752H737.817V359.452H740.845V354.752Z" fill="#E6E6E6"/>
<path d="M740.845 364.151H737.817V368.851H740.845V364.151Z" fill="#93BBA1"/>
<path d="M740.845 373.551H737.817V378.25H740.845V373.551Z" fill="#E6E6E6"/>
<path d="M740.845 381.383H737.817V386.083H740.845V381.383Z" fill="#E6E6E6"/>
<path d="M740.845 390.782H737.817V395.482H740.845V390.782Z" fill="#93BBA1"/>
<path d="M804.423 401.748H757.496V404.881H804.423V401.748Z" fill="#E6E6E6"/>
<path d="M828.644 409.581H757.496V414.28H828.644V409.581Z" fill="#93BBA1"/>
<path d="M816.534 418.98H757.496V422.113H816.534V418.98Z" fill="#E6E6E6"/>
<path d="M792.313 428.379H757.496V431.512H792.313V428.379Z" fill="#E6E6E6"/>
<path d="M808.965 437.778H757.496V440.911H808.965V437.778Z" fill="#E6E6E6"/>
<path d="M740.845 400.182H737.817V404.881H740.845V400.182Z" fill="#E6E6E6"/>
<path d="M740.845 409.581H737.817V414.28H740.845V409.581Z" fill="#93BBA1"/>
<path d="M740.845 418.98H737.817V423.68H740.845V418.98Z" fill="#E6E6E6"/>
<path d="M740.845 428.379H737.817V433.079H740.845V428.379Z" fill="#E6E6E6"/>
<path d="M740.845 437.778H737.817V442.478H740.845V437.778Z" fill="#E6E6E6"/>
<path opacity="0.38" d="M866.488 235.696H734.789V334.387H866.488V235.696Z" fill="#3F3D56"/>
<path d="M778.689 346.136H774.905V342.22H773.391V346.136H769.606V347.703H773.391V351.619H774.905V347.703H778.689V346.136Z" fill="#797777" fill-opacity="0.96"/>
<path d="M828.644 346.919V345.353H821.075V346.919H828.644Z" fill="#797777" fill-opacity="0.96"/>
<path opacity="0.2" d="M804.423 249.794C804.423 250.21 804.025 250.608 803.315 250.902C802.605 251.196 801.643 251.361 800.639 251.361C799.635 251.361 798.673 251.196 797.963 250.902C797.253 250.608 796.854 250.21 796.854 249.794" fill="black"/>
<path d="M778.689 485.558H774.905V481.641H773.391V485.558H769.606V487.124H773.391V491.041H774.905V487.124H778.689V485.558Z" fill="#797777" fill-opacity="0.96"/>
<path d="M828.644 487.908V486.341H821.075V487.908H828.644Z" fill="#797777" fill-opacity="0.96"/>
<path opacity="0.2" d="M737.817 287.391C737.817 288.222 737.657 289.019 737.374 289.607C737.09 290.194 736.705 290.524 736.303 290.524C735.902 290.524 735.517 290.194 735.233 289.607C734.949 289.019 734.789 288.222 734.789 287.391" fill="black"/>
<path d="M799.125 323.422C823.788 323.422 843.782 306.589 843.782 285.825C843.782 265.061 823.788 248.228 799.125 248.228C774.462 248.228 754.469 265.061 754.469 285.825C754.469 306.589 774.462 323.422 799.125 323.422Z" fill="#93BBA1"/>
<path opacity="0.2" d="M798.368 314.022C790.663 314.022 783.197 311.76 777.241 307.622C771.285 303.483 767.208 297.724 765.705 291.326C764.202 284.927 765.366 278.286 768.998 272.532C772.63 266.779 778.505 262.27 785.624 259.773C792.742 257.277 800.663 256.948 808.036 258.841C815.409 260.735 821.778 264.735 826.059 270.159C830.34 275.583 832.266 282.096 831.511 288.588C830.756 295.081 827.365 301.15 821.917 305.763C818.832 308.39 815.162 310.472 811.12 311.89C807.077 313.308 802.743 314.032 798.368 314.022ZM798.368 259.366C781.137 259.366 767.119 271.235 767.119 285.824C767.119 300.414 781.137 312.283 798.368 312.283C815.599 312.283 829.618 300.414 829.618 285.824C829.618 271.235 815.599 259.366 798.368 259.366Z" fill="black"/>
<path d="M799.125 314.022C816.264 314.022 830.158 301.749 830.158 286.608C830.158 271.467 816.264 259.194 799.125 259.194C781.986 259.194 768.093 271.467 768.093 286.608C768.093 301.749 781.986 314.022 799.125 314.022Z" fill="#3F3D56"/>
<path d="M774.618 275.165C774.361 274.763 774.206 274.323 774.161 273.872C774.117 273.422 774.183 272.968 774.358 272.538C774.532 272.108 774.811 271.71 775.177 271.366C775.544 271.022 775.992 270.739 776.495 270.534C776.998 270.329 777.547 270.205 778.11 270.17C778.673 270.135 779.239 270.188 779.776 270.329C780.313 270.469 780.81 270.692 781.239 270.986C781.668 271.28 782.021 271.639 782.277 272.042L791.843 287.085C792.1 287.488 792.255 287.927 792.3 288.378C792.344 288.829 792.278 289.282 792.103 289.712C791.929 290.142 791.65 290.541 791.284 290.884C790.917 291.228 790.469 291.511 789.966 291.716C789.463 291.921 788.914 292.045 788.351 292.08C787.788 292.116 787.222 292.062 786.685 291.922C786.148 291.782 785.651 291.558 785.222 291.264C784.793 290.97 784.44 290.611 784.184 290.208L774.618 275.165Z" fill="#FF6584"/>
<path opacity="0.2" d="M774.643 277.992L774.148 277.137C776.619 275.449 779.52 274.208 782.735 273.292L783.23 274.147C779.75 274.784 776.79 275.963 774.643 277.992Z" fill="black"/>
<path opacity="0.2" d="M779.019 281.125L778.689 280.27C780.337 278.582 782.271 277.341 784.414 276.425L784.744 277.28C782.424 277.917 780.451 279.096 779.019 281.125Z" fill="black"/>
<path opacity="0.2" d="M780.533 284.258L780.203 283.403C781.85 281.716 783.785 280.474 785.928 279.559L786.258 280.413C783.938 281.05 781.964 282.23 780.533 284.258Z" fill="black"/>
<path opacity="0.2" d="M780.616 287.391L780.203 286.536C782.262 284.849 784.68 283.607 787.359 282.692L787.772 283.546C784.872 284.184 782.405 285.363 780.616 287.391Z" fill="black"/>
<path opacity="0.2" d="M783.725 290.524L783.23 289.954C785.701 288.829 788.603 288.002 791.818 287.391L792.313 287.961C788.833 288.386 785.872 289.172 783.725 290.524Z" fill="black"/>
<path d="M768.523 281.075C768.288 280.701 768.146 280.293 768.105 279.874C768.064 279.455 768.125 279.034 768.285 278.635C768.445 278.235 768.7 277.865 769.037 277.546C769.373 277.227 769.783 276.964 770.245 276.774C770.706 276.583 771.209 276.468 771.725 276.435C772.242 276.402 772.761 276.453 773.253 276.583C773.745 276.713 774.201 276.92 774.594 277.193C774.988 277.466 775.311 277.8 775.546 278.174L784.317 292.147C784.79 292.902 784.874 293.779 784.55 294.584C784.227 295.39 783.523 296.058 782.592 296.442C781.661 296.827 780.581 296.896 779.588 296.634C778.594 296.373 777.77 295.802 777.295 295.048L768.523 281.075Z" fill="#FF6584"/>
<path opacity="0.2" d="M770.019 282.692L769.606 282.122C771.665 280.997 774.083 280.169 776.763 279.559L777.175 280.128C774.275 280.553 771.808 281.339 770.019 282.692Z" fill="black"/>
<path opacity="0.2" d="M771.533 285.825L771.12 284.97C773.179 283.282 775.597 282.041 778.277 281.125L778.689 281.98C775.789 282.617 773.322 283.796 771.533 285.825Z" fill="black"/>
<path opacity="0.2" d="M773.047 287.391L772.634 287.106C774.693 286.544 777.111 286.13 779.79 285.825L780.203 286.11C777.303 286.322 774.836 286.715 773.047 287.391Z" fill="black"/>
<path opacity="0.2" d="M774.478 292.091L774.148 291.236C775.795 289.548 777.729 288.307 779.873 287.391L780.203 288.246C777.883 288.883 775.909 290.062 774.478 292.091Z" fill="black"/>
<path opacity="0.2" d="M777.588 295.224L777.175 294.654C779.234 293.529 781.652 292.701 784.332 292.091L784.744 292.661C781.844 293.085 779.377 293.872 777.588 295.224Z" fill="black"/>
<path d="M819.929 287.158L819.958 287.158C820.934 287.165 821.89 286.933 822.701 286.491C823.512 286.05 824.141 285.421 824.505 284.685C825.253 283.148 825.63 281.509 825.616 279.856C825.565 272.862 818.558 267.124 809.947 267.028C806.279 266.986 802.707 267.975 799.835 269.828C796.963 271.681 794.969 274.284 794.19 277.195C793.411 280.106 793.895 283.146 795.561 285.799C797.226 288.453 799.971 290.558 803.329 291.756C804.216 292.075 805.202 292.169 806.156 292.025C807.11 291.882 807.989 291.507 808.676 290.951C810.151 289.747 811.905 288.792 813.836 288.141C815.767 287.49 817.838 287.156 819.929 287.158Z" fill="#E6E6E6"/>
<path d="M811.236 282.692C814.162 282.692 816.534 280.938 816.534 278.775C816.534 276.612 814.162 274.859 811.236 274.859C808.31 274.859 805.937 276.612 805.937 278.775C805.937 280.938 808.31 282.692 811.236 282.692Z" fill="#F9A825"/>
<path d="M776.418 285.825C777.672 285.825 778.689 285.474 778.689 285.041C778.689 284.609 777.672 284.258 776.418 284.258C775.164 284.258 774.148 284.609 774.148 285.041C774.148 285.474 775.164 285.825 776.418 285.825Z" fill="#3F3D56"/>
<path d="M808.208 296.79C809.462 296.79 810.479 295.738 810.479 294.441C810.479 293.143 809.462 292.091 808.208 292.091C806.954 292.091 805.937 293.143 805.937 294.441C805.937 295.738 806.954 296.79 808.208 296.79Z" fill="#FF6584"/>
<path opacity="0.2" d="M808.965 293.657C808.965 294.073 808.806 294.471 808.522 294.765C808.238 295.059 807.853 295.224 807.451 295.224C807.05 295.224 806.665 295.059 806.381 294.765C806.097 294.471 805.937 294.073 805.937 293.657" fill="black"/>
<path opacity="0.2" d="M805.937 293.657C805.937 293.242 806.097 292.843 806.381 292.55C806.665 292.256 807.05 292.091 807.451 292.091C807.853 292.091 808.238 292.256 808.522 292.55C808.806 292.843 808.965 293.242 808.965 293.657" fill="black"/>
<path d="M812.749 290.524C814.003 290.524 815.02 289.823 815.02 288.958C815.02 288.093 814.003 287.391 812.749 287.391C811.495 287.391 810.479 288.093 810.479 288.958C810.479 289.823 811.495 290.524 812.749 290.524Z" fill="#FF6584"/>
<path opacity="0.2" d="M815.02 287.391C815.02 288.222 814.861 289.019 814.577 289.607C814.293 290.194 813.908 290.524 813.506 290.524C813.105 290.524 812.72 290.194 812.436 289.607C812.152 289.019 811.992 288.222 811.992 287.391" fill="black"/>
<path d="M818.047 293.657C819.719 293.657 821.075 292.605 821.075 291.308C821.075 290.01 819.719 288.958 818.047 288.958C816.375 288.958 815.02 290.01 815.02 291.308C815.02 292.605 816.375 293.657 818.047 293.657Z" fill="#93BBA1"/>
<path opacity="0.2" d="M815.02 292.091C815.02 291.26 815.339 290.463 815.907 289.875C816.474 289.288 817.245 288.958 818.047 288.958C818.85 288.958 819.62 289.288 820.188 289.875C820.756 290.463 821.075 291.26 821.075 292.091" fill="black"/>
<path d="M806.694 293.657C807.948 293.657 808.965 292.605 808.965 291.308C808.965 290.01 807.948 288.958 806.694 288.958C805.44 288.958 804.424 290.01 804.424 291.308C804.424 292.605 805.44 293.657 806.694 293.657Z" fill="#93BBA1"/>
<path opacity="0.2" d="M807.451 292.091C807.451 292.506 807.292 292.905 807.008 293.199C806.724 293.492 806.339 293.657 805.938 293.657C805.536 293.657 805.151 293.492 804.867 293.199C804.583 292.905 804.424 292.506 804.424 292.091" fill="black"/>
<path opacity="0.2" d="M804.424 292.091C804.424 291.675 804.583 291.277 804.867 290.983C805.151 290.689 805.536 290.524 805.938 290.524C806.339 290.524 806.724 290.689 807.008 290.983C807.292 291.277 807.451 291.675 807.451 292.091" fill="black"/>
<path d="M811.992 295.224C813.664 295.224 815.02 294.172 815.02 292.874C815.02 291.576 813.664 290.524 811.992 290.524C810.32 290.524 808.965 291.576 808.965 292.874C808.965 294.172 810.32 295.224 811.992 295.224Z" fill="#93BBA1"/>
<path opacity="0.2" d="M813.506 292.091C813.506 292.297 813.447 292.5 813.333 292.69C813.219 292.88 813.052 293.053 812.841 293.199C812.63 293.344 812.38 293.459 812.104 293.538C811.829 293.617 811.534 293.657 811.235 293.657C810.937 293.657 810.642 293.617 810.367 293.538C810.091 293.459 809.841 293.344 809.63 293.199C809.419 293.053 809.252 292.88 809.138 292.69C809.024 292.5 808.965 292.297 808.965 292.091" fill="black"/>
<path opacity="0.2" d="M808.965 292.091C808.965 291.885 809.024 291.681 809.138 291.491C809.252 291.301 809.419 291.129 809.63 290.983C809.841 290.838 810.091 290.722 810.367 290.644C810.642 290.565 810.937 290.524 811.235 290.524C811.534 290.524 811.829 290.565 812.104 290.644C812.38 290.722 812.63 290.838 812.841 290.983C813.052 291.129 813.219 291.301 813.333 291.491C813.447 291.681 813.506 291.885 813.506 292.091" fill="black"/>
<path d="M811.235 293.657C811.654 293.657 811.992 293.307 811.992 292.874C811.992 292.442 811.654 292.091 811.235 292.091C810.817 292.091 810.479 292.442 810.479 292.874C810.479 293.307 810.817 293.657 811.235 293.657Z" fill="#93BBA1"/>
<path d="M815.02 296.79C815.856 296.79 816.534 295.738 816.534 294.441C816.534 293.143 815.856 292.091 815.02 292.091C814.184 292.091 813.506 293.143 813.506 294.441C813.506 295.738 814.184 296.79 815.02 296.79Z" fill="#FF6584"/>
<path opacity="0.2" d="M816.534 295.224C816.534 295.639 816.374 296.038 816.09 296.332C815.806 296.625 815.421 296.79 815.02 296.79C814.618 296.79 814.233 296.625 813.949 296.332C813.666 296.038 813.506 295.639 813.506 295.224" fill="black"/>
<path opacity="0.2" d="M813.506 295.224C813.506 294.393 813.666 293.596 813.949 293.009C814.233 292.421 814.618 292.091 815.02 292.091C815.421 292.091 815.806 292.421 816.09 293.009C816.374 293.596 816.534 294.393 816.534 295.224" fill="black"/>
<path d="M803.753 306.19L786.258 303.084L786.928 301.49L804.423 304.596L803.753 306.19Z" fill="#F9A825"/>
<path d="M801.396 305.406C795.895 306.451 790.245 306.451 784.744 305.406V303.057C790.257 303.963 795.883 303.963 801.396 303.057V305.406Z" fill="#F9A825"/>
<path d="M801.396 300.315C796.395 301.882 791.259 301.882 786.258 300.315V296.79C791.27 298.15 796.384 298.15 801.396 296.79V300.315Z" fill="#F9A825"/>
<path d="M807.451 303.84C802.95 304.884 798.327 304.884 793.827 303.84V301.49C798.337 302.396 802.94 302.396 807.451 301.49V303.84Z" fill="#F9A825"/>
<path d="M811.992 306.778L797.197 309.323L796.854 307.167L811.649 304.623L811.992 306.778Z" fill="#F9A825"/>
<path d="M808.965 306.454C805.54 309.246 801.68 311.282 797.587 312.456L796.854 310.625C800.911 309.34 804.754 307.313 808.232 304.623L808.965 306.454Z" fill="#F9A825"/>
<path d="M808.965 301.754C804.684 304.547 799.859 306.583 794.743 307.756L793.827 305.925C798.898 304.64 803.702 302.613 808.049 299.923L808.965 301.754Z" fill="#F9A825"/>
<path d="M815.02 301.754C811.167 304.547 806.825 306.583 802.221 307.756L801.396 305.925C805.96 304.64 810.283 302.613 814.195 299.923L815.02 301.754Z" fill="#F9A825"/>
<path d="M816.534 303.321C812.681 306.113 808.338 308.149 803.734 309.323L802.91 307.492C807.474 306.207 811.797 304.18 815.709 301.49L816.534 303.321Z" fill="#F9A825"/>
<path d="M798.368 299.923H796.854V301.49H798.368V299.923Z" fill="#00BF71"/>
<path d="M789.286 299.923H787.772V301.49H789.286V299.923Z" fill="#00BF71"/>
<path d="M805.937 303.057H804.424V304.623H805.937V303.057Z" fill="#00BF71"/>
<path d="M794.827 301.82L793.995 301.338L793.672 301.744L794.504 302.226L794.827 301.82Z" fill="#00BF71"/>
<path d="M803.3 303.166L802.468 302.685L802.144 303.091L802.977 303.572L803.3 303.166Z" fill="#00BF71"/>
<path d="M792.961 305.492L792.129 305.011L791.805 305.417L792.638 305.898L792.961 305.492Z" fill="#00BF71"/>
<path d="M798.226 305.456L798.791 304.747L798.315 304.472L797.751 305.181L798.226 305.456Z" fill="#00BF71"/>
<path d="M802.104 306.313L802.668 305.604L802.193 305.329L801.628 306.038L802.104 306.313Z" fill="#00BF71"/>
<path d="M812.444 303.375L813.008 302.666L812.533 302.391L811.968 303.1L812.444 303.375Z" fill="#00BF71"/>
</svg>
