<svg width="60" height="60" viewBox="0 0 60 60" fill="none" xmlns="http://www.w3.org/2000/svg">
<path d="M29.9963 0C21.8419 0 20.8256 0.039375 17.6344 0.174375C14.43 0.331875 12.2625 0.82875 10.35 1.57125C8.34837 2.32691 6.53562 3.51003 5.03812 5.03813C3.50577 6.53212 2.32199 8.34587 1.57125 10.35C0.82875 12.2625 0.331875 14.43 0.174375 17.6344C0.03 20.8275 0 21.8419 0 29.9963C0 38.1506 0.039375 39.1669 0.174375 42.3581C0.331875 45.5531 0.82875 47.73 1.57125 49.6425C2.32691 51.6441 3.51003 53.4569 5.03812 54.9544C6.53212 56.4867 8.34587 57.6705 10.35 58.4213C12.2625 59.1544 14.4394 59.6606 17.6344 59.8181C20.8275 59.9625 21.8419 59.9925 29.9963 59.9925C38.1506 59.9925 39.1669 59.9531 42.3581 59.8181C45.5531 59.6606 47.73 59.1525 49.6425 58.4213C51.6441 57.6656 53.4569 56.4825 54.9544 54.9544C56.4887 53.462 57.6728 51.6478 58.4212 49.6425C59.1544 47.73 59.6606 45.5531 59.8181 42.3581C59.9625 39.165 59.9925 38.1506 59.9925 29.9963C59.9925 21.8419 59.9531 20.8256 59.8181 17.6344C59.6606 14.4394 59.1525 12.2513 58.4212 10.35C57.6656 8.34837 56.4825 6.53562 54.9544 5.03813C53.462 3.50379 51.6478 2.31971 49.6425 1.57125C47.73 0.82875 45.5531 0.331875 42.3581 0.174375C39.165 0.03 38.1506 0 29.9963 0ZM29.9963 5.4C38.0044 5.4 38.9606 5.43938 42.1256 5.57438C45.045 5.71125 46.635 6.19875 47.6906 6.61125C48.9957 7.09298 50.1768 7.85972 51.1481 8.85563C52.1423 9.8228 52.9062 11.0013 53.3831 12.3037C53.7956 13.3594 54.2831 14.9494 54.42 17.8687C54.555 21.0337 54.5944 21.9919 54.5944 29.9981C54.5944 38.0044 54.555 38.9625 54.4087 42.1275C54.2512 45.0469 53.7637 46.6369 53.3531 47.6925C52.785 49.1006 52.1512 50.085 51.105 51.15C50.1304 52.1397 48.95 52.9027 47.6475 53.385C46.605 53.7975 44.9925 54.285 42.0619 54.4219C38.88 54.5569 37.9425 54.5963 29.9138 54.5963C21.885 54.5963 20.9494 54.5569 17.7637 54.4106C14.8444 54.2531 13.2338 53.7656 12.1781 53.355C10.7531 52.7869 9.77625 52.1531 8.73 51.1069C7.67438 50.0512 7.00312 49.0463 6.48562 47.6494C6.06562 46.6069 5.58562 44.9944 5.43 42.0638C5.32312 38.9194 5.2725 37.9444 5.2725 29.9531C5.2725 21.9656 5.32312 20.9888 5.43 17.805C5.58562 14.8744 6.06562 13.2656 6.48562 12.2194C7.00312 10.7925 7.67625 9.8175 8.73 8.76187C9.77438 7.7175 10.7531 7.0425 12.1781 6.51375C13.2338 6.10312 14.805 5.61563 17.7356 5.46938C20.9175 5.355 21.855 5.31375 29.8725 5.31375L29.9963 5.4ZM29.9963 14.6006C27.9738 14.5999 25.971 14.9977 24.1023 15.7713C22.2336 16.545 20.5357 17.6792 19.1056 19.1093C17.6755 20.5395 16.5412 22.2374 15.7676 24.106C14.9939 25.9747 14.5961 27.9775 14.5969 30C14.5961 32.0225 14.9939 34.0253 15.7676 35.894C16.5412 37.7626 17.6755 39.4605 19.1056 40.8907C20.5357 42.3208 22.2336 43.455 24.1023 44.2287C25.971 45.0023 27.9738 45.4001 29.9963 45.3994C32.0187 45.4001 34.0215 45.0023 35.8902 44.2287C37.7589 43.455 39.4568 42.3208 40.8869 40.8907C42.317 39.4605 43.4513 37.7626 44.2249 35.894C44.9985 34.0253 45.3964 32.0225 45.3956 30C45.3964 27.9775 44.9985 25.9747 44.2249 24.106C43.4513 22.2374 42.317 20.5395 40.8869 19.1093C39.4568 17.6792 37.7589 16.545 35.8902 15.7713C34.0215 14.9977 32.0187 14.5999 29.9963 14.6006V14.6006ZM29.9963 39.9994C24.4688 39.9994 19.9969 35.5275 19.9969 30C19.9969 24.4725 24.4688 20.0006 29.9963 20.0006C35.5238 20.0006 39.9956 24.4725 39.9956 30C39.9956 35.5275 35.5238 39.9994 29.9963 39.9994ZM49.6162 13.9856C49.6153 14.9412 49.2349 15.8574 48.5589 16.5328C47.8828 17.2081 46.9662 17.5875 46.0106 17.5875C45.5381 17.5875 45.0702 17.4944 44.6337 17.3136C44.1971 17.1328 43.8005 16.8678 43.4664 16.5336C43.1322 16.1995 42.8672 15.8029 42.6864 15.3663C42.5056 14.9298 42.4125 14.4619 42.4125 13.9894C42.4125 13.5169 42.5056 13.049 42.6864 12.6124C42.8672 12.1759 43.1322 11.7792 43.4664 11.4451C43.8005 11.111 44.1971 10.846 44.6337 10.6651C45.0702 10.4843 45.5381 10.3912 46.0106 10.3912C47.9925 10.3912 49.6162 12.0038 49.6162 13.9856V13.9856Z" fill="white"/>
</svg>
