<svg width="60" height="60" viewBox="0 0 60 60" fill="none" xmlns="http://www.w3.org/2000/svg">
<path d="M25.7143 4.63339C32.5802 4.63339 33.3934 4.65951 36.1049 4.78306C38.612 4.89757 39.9737 5.31643 40.8799 5.66859C42.08 6.13507 42.9366 6.69234 43.8364 7.59214C44.7364 8.49194 45.2935 9.34855 45.76 10.5487C46.1121 11.4549 46.531 12.8166 46.6455 15.3235C46.7691 18.0352 46.7952 18.8484 46.7952 25.7143C46.7952 32.5804 46.7691 33.3936 46.6455 36.1051C46.531 38.6122 46.1121 39.9737 45.76 40.8799C45.2935 42.08 44.7362 42.9368 43.8364 43.8366C42.9366 44.7364 42.08 45.2937 40.8799 45.76C39.9737 46.1121 38.612 46.5312 36.1049 46.6455C33.3938 46.7693 32.5806 46.7954 25.7143 46.7954C18.8478 46.7954 18.0346 46.7693 15.3235 46.6455C12.8164 46.531 11.4549 46.1121 10.5487 45.76C9.34855 45.2937 8.49174 44.7364 7.59194 43.8366C6.69214 42.9366 6.13487 42.08 5.66859 40.8799C5.31643 39.9739 4.89737 38.6122 4.78306 36.1051C4.65931 33.3936 4.63319 32.5804 4.63319 25.7143C4.63319 18.8484 4.65931 18.0352 4.78306 15.3237C4.89757 12.8166 5.31643 11.4549 5.66859 10.5487C6.13487 9.34855 6.69214 8.49194 7.59194 7.59214C8.49194 6.69214 9.34855 6.13507 10.5487 5.66859C11.4547 5.31643 12.8164 4.89757 15.3235 4.78306C18.035 4.65951 18.8482 4.63339 25.7143 4.63339V4.63339ZM25.7143 0C18.7306 0 17.855 0.0295312 15.1124 0.154688C12.3752 0.279643 10.5059 0.714375 8.87042 1.35C7.17931 2.00712 5.74534 2.88643 4.31578 4.31598C2.88623 5.74554 2.00712 7.17951 1.35 8.87042C0.714174 10.5061 0.279643 12.3754 0.154688 15.1124C0.0295312 17.855 0 18.7306 0 25.7143C0 32.6979 0.0295312 33.5736 0.154688 36.3162C0.279643 39.0534 0.714174 40.9227 1.35 42.5581C2.00692 44.2491 2.88623 45.6832 4.31578 47.1128C5.74534 48.5423 7.17931 49.4215 8.87042 50.0786C10.5061 50.7144 12.3752 51.1489 15.1122 51.2739C17.855 51.399 18.7306 51.4286 25.7143 51.4286C32.6979 51.4286 33.5736 51.399 36.3162 51.2739C39.0532 51.1489 40.9225 50.7144 42.5579 50.0786C44.2491 49.4217 45.683 48.5423 47.1126 47.1128C48.5421 45.6832 49.4215 44.2493 50.0786 42.5581C50.7142 40.9225 51.1489 39.0534 51.2739 36.3164C51.399 33.5736 51.4286 32.6979 51.4286 25.7143C51.4286 18.7306 51.399 17.855 51.2739 15.1124C51.1489 12.3754 50.7142 10.5061 50.0786 8.87063C49.4215 7.17951 48.5421 5.74554 47.1126 4.31598C45.683 2.88643 44.2491 2.00692 42.5581 1.35C40.9225 0.714375 39.0532 0.279643 36.3162 0.154688C33.5736 0.0295312 32.6979 0 25.7143 0ZM25.7143 12.5096C18.4215 12.5096 12.5096 18.4219 12.5096 25.7143C12.5096 33.0071 18.4215 38.919 25.7143 38.919C33.0069 38.919 38.919 33.0071 38.919 25.7143C38.919 18.4217 33.0069 12.5096 25.7143 12.5096V12.5096ZM25.7143 34.2858C20.9804 34.2858 17.1428 30.4481 17.1428 25.7143C17.1428 20.9804 20.9804 17.1428 25.7143 17.1428C30.4481 17.1428 34.2858 20.9804 34.2858 25.7143C34.2858 30.4481 30.4481 34.2858 25.7143 34.2858ZM42.5262 11.9879C42.5262 13.6923 41.1449 15.0736 39.4405 15.0736C37.7363 15.0736 36.3548 13.6923 36.3548 11.9879C36.3548 10.2837 37.7363 8.90217 39.4405 8.90217C41.1449 8.90217 42.5262 10.2837 42.5262 11.9879V11.9879Z" fill="white"/>
</svg>
