<svg width="60" height="60" viewBox="0 0 60 60" fill="none" xmlns="http://www.w3.org/2000/svg">
<path d="M60 7.10717C58.3292 10.1667 56.2793 12.7747 53.8505 14.9313C53.8745 15.5097 53.8864 16.1635 53.8864 16.8926C53.8864 20.9435 53.4067 24.9993 52.4472 29.06C51.4877 33.1208 50.022 37.0076 48.0502 40.7206C46.0784 44.4335 43.7296 47.7229 41.0039 50.5887C38.2781 53.4544 35.0016 55.7394 31.1744 57.4436C27.3471 59.1479 23.2454 60 18.8691 60C12.0392 60 5.74946 57.7301 0 53.1904C1.02046 53.3302 1.99917 53.4001 2.93612 53.4001C8.64197 53.4001 13.7382 51.2366 18.2249 46.9095C15.5645 46.8495 13.1819 45.8413 11.0771 43.885C8.97234 41.9287 7.52389 39.4289 6.73175 36.3857C7.51473 36.5693 8.2875 36.6611 9.05007 36.6611C10.1477 36.6611 11.2278 36.4849 12.2903 36.1324C9.45119 35.4324 7.09588 33.6916 5.22441 30.91C3.353 28.1284 2.4173 24.918 2.4173 21.2786V21.0911C4.15997 22.2789 6.0188 22.9107 7.9938 22.9866C6.31192 21.6063 4.97844 19.8063 3.99337 17.5866C3.00822 15.367 2.51565 12.965 2.51565 10.3805C2.51565 7.65481 3.07048 5.11666 4.18013 2.76606C7.26764 7.43033 11.0088 11.1582 15.4036 13.9496C19.7985 16.741 24.5133 18.2913 29.5482 18.6004C29.3334 17.4987 29.2259 16.349 29.2255 15.1513C29.2255 10.9695 30.4276 7.39879 32.8319 4.43928C35.2362 1.47976 38.1368 0 41.5337 0C45.0902 0 48.0859 1.59422 50.5208 4.78266C53.3027 4.1043 55.9076 2.87732 58.3352 1.10172C57.3999 4.72532 55.5977 7.52067 52.9285 9.48779C55.3817 9.12891 57.7389 8.33537 59.9999 7.10717H60Z" fill="white"/>
</svg>
