<svg width="1371" height="1410" viewBox="0 0 1371 1410" fill="none" xmlns="http://www.w3.org/2000/svg">
<path fill-rule="evenodd" clip-rule="evenodd" d="M715.814 51.6696C806.768 80.1223 887.964 118.879 977.853 150.504C1100.9 193.794 1266.24 165.809 1341.56 271.823C1415 375.196 1327.86 517.054 1328.21 643.633C1328.63 798.067 1409.98 957.586 1343.8 1097.29C1272.95 1246.84 1131.13 1381.29 966.846 1406.41C803.972 1431.3 650.292 1322.19 518.807 1223.4C415.436 1145.73 372.93 1019.68 305.629 909.575C250.521 819.419 207.532 729.697 159.524 635.609C85.5293 490.594 -89.9671 365.263 -52.9279 206.869C-17.6812 56.1393 168.532 -24.1885 321.01 -54.9719C457.415 -82.5103 583.039 10.1345 715.814 51.6696Z" fill="url(#paint0_linear)"/>
<defs>
<linearGradient id="paint0_linear" x1="656.5" y1="-60" x2="656.5" y2="1410" gradientUnits="userSpaceOnUse">
<stop stop-color="#CFC770"/>
<stop offset="1" stop-color="#A6E5BB"/>
</linearGradient>
</defs>
</svg>
