<svg width="1350" height="1410" viewBox="0 0 1350 1410" fill="none" xmlns="http://www.w3.org/2000/svg">
<path fill-rule="evenodd" clip-rule="evenodd" d="M701.232 52.5936C791.296 81.027 871.696 119.757 960.705 151.361C1082.54 194.622 1246.26 166.655 1320.84 272.598C1393.57 375.9 1307.29 517.662 1307.63 644.154C1308.04 798.483 1388.6 957.894 1323.07 1097.5C1252.91 1246.95 1112.48 1381.31 949.806 1406.41C788.527 1431.29 636.353 1322.25 506.156 1223.52C403.798 1145.91 361.708 1019.94 295.067 909.916C240.499 819.82 197.93 730.16 150.393 636.136C77.1231 491.219 -96.6539 365.974 -59.9776 207.687C-25.0762 57.0603 159.312 -23.2128 310.297 -53.9753C445.366 -81.495 569.759 11.0868 701.232 52.5936Z" fill="url(#paint0_linear)"/>
<defs>
<linearGradient id="paint0_linear" x1="642.5" y1="-59" x2="642.5" y2="1410" gradientUnits="userSpaceOnUse">
<stop stop-color="#CFC770"/>
<stop offset="1" stop-color="#A6E5BB"/>
</linearGradient>
</defs>
</svg>
