<svg width="1364" height="972" viewBox="0 0 1364 972" fill="none" xmlns="http://www.w3.org/2000/svg">
<path fill-rule="evenodd" clip-rule="evenodd" d="M708.814 19.3207C799.768 39.2763 880.964 66.4586 970.853 88.6394C1093.9 119.001 1259.24 99.3736 1334.56 173.728C1408 246.23 1320.86 345.723 1321.21 434.5C1321.63 542.814 1402.98 654.695 1336.8 752.676C1265.95 857.567 1124.13 951.865 959.846 969.479C796.972 986.941 643.292 910.416 511.807 841.124C408.436 786.649 365.93 698.244 298.629 621.022C243.521 557.79 200.532 494.862 152.524 428.873C78.5293 327.165 -96.9671 239.263 -59.9279 128.171C-24.6812 22.4555 161.532 -33.8832 314.01 -55.4735C450.415 -74.7879 576.039 -9.81042 708.814 19.3207Z" fill="url(#paint0_linear)"/>
<defs>
<linearGradient id="paint0_linear" x1="649.5" y1="-59" x2="649.5" y2="972" gradientUnits="userSpaceOnUse">
<stop stop-color="#CFC770"/>
<stop offset="1" stop-color="#A6E5BB"/>
</linearGradient>
</defs>
</svg>
