<svg width="1361" height="872" viewBox="0 0 1361 872" fill="none" xmlns="http://www.w3.org/2000/svg">
<path fill-rule="evenodd" clip-rule="evenodd" d="M710.255 19.6375C832.459 47.3023 859.327 154.805 966.244 202.502C1079.45 253.002 1272.37 221.114 1338.35 299.836C1402.66 376.566 1315.44 471.601 1258.05 550.664C1206.94 621.089 1119.59 671.624 1030.86 723.512C930.972 781.925 842.75 883.1 710.255 871.006C574.059 858.576 564.14 719.174 448.478 670.355C319.805 616.044 103.339 665.715 22.1878 580.585C-55.6045 498.977 53.7362 394.995 98.6257 303.347C143.676 211.371 162.929 103.606 283.119 47.8551C402.92 -7.71532 571.58 -11.7557 710.255 19.6375Z" fill="#CDB261"/>
</svg>
